<?xml version="1.0" encoding="UTF-8"?><svg xmlns="http://www.w3.org/2000/svg" xmlns:xlink="http://www.w3.org/1999/xlink" height="300.0" preserveAspectRatio="xMidYMid meet" version="1.0" viewBox="0.0 0.0 180.0 300.0" width="180.0" zoomAndPan="magnify"><g id="change1_3"><path d="M175,10V5h-5V0h-10H45h-5h-5H10v5H5v5H0v95h5v5h5v5h25v5v5H10v5H5v5H0v10h5v5h5v5h25v5v10v5v5v25v5v5v75h-5 v5v5h5h10h5v-5v-5h-5V160v-5h90v5v10v5v5v25v5v5v75h-5v5v5h5h10h5v-5v-5h-5V160v-5h25v-5h5v-5h5v-10h-5v-5h-5v-5h-10h-15v-5v-5h25 v-5h5v-5h5V85v-5v-5V20V10H175z M135,120v5H45v-5v-5h90V120z" fill="#AB1D8C"/></g><g><g id="change1_13"><path d="M135 90H145V300H135z" fill="#AB1D8C"/></g><g id="change1_14"><path d="M130 290H150V300H130z" fill="#AB1D8C"/></g><g id="change2_31"><path d="M130 290H135V300H130z" fill="#060035" opacity=".2"/></g><g id="change2_32"><path d="M130 290H150V295H130z" fill="#060035" opacity=".2"/></g><g id="change3_40"><path d="M145 290H150V300H145z" fill="#FF999A" opacity=".2"/></g><g id="change2_33"><path d="M135 215H140V290H135z" fill="#060035" opacity=".3"/></g><g id="change2_34"><path d="M135 145H140V150H135z" fill="#060035" opacity=".3"/></g><g id="change3_41"><path d="M140 115H145V290H140z" fill="#FF999A" opacity=".5"/></g><g id="change2_35"><path d="M135 115L135 120 135 125 140 125 140 120 145 120 145 115z" fill="#060035" opacity=".5"/></g><g id="change1_15"><path d="M35 90H45V300H35z" fill="#AB1D8C"/></g><g id="change1_16"><path d="M30 290H50V300H30z" fill="#AB1D8C"/></g><g id="change2_36"><path d="M30 290H35V300H30z" fill="#060035" opacity=".2"/></g><g id="change2_37"><path d="M30 290H50V295H30z" fill="#060035" opacity=".2"/></g><g id="change3_42"><path d="M45 290H50V300H45z" fill="#FF999A" opacity=".2"/></g><g id="change2_38"><path d="M35 215H40V290H35z" fill="#060035" opacity=".3"/></g><g id="change2_39"><path d="M35 145H40V150H35z" fill="#060035" opacity=".3"/></g><g id="change3_43"><path d="M40 115H45V290H40z" fill="#FF999A" opacity=".5"/></g><g id="change2_40"><path d="M35 115L35 120 35 125 40 125 40 120 45 120 45 115z" fill="#060035" opacity=".5"/></g><g id="change4_1"><path d="M175 10L175 5 170 5 170 0 10 0 10 5 5 5 5 10 0 10 0 105 5 105 5 110 10 110 10 115 170 115 170 110 175 110 175 105 180 105 180 10z" fill="#0091D1"/></g><g><g id="change1_5"><path d="M125 65L125 55 120 55 120 25 115 25 115 20 110 20 110 15 105 15 100 15 100 10 90 10 80 10 80 15 75 15 70 15 70 20 65 20 65 25 60 25 60 55 55 55 55 65 50 65 50 70 55 70 55 75 60 75 60 60 65 60 80 60 80 55 70 55 70 50 75 50 80 50 80 55 90 55 100 55 100 50 105 50 110 50 110 55 100 55 100 60 115 60 120 60 120 75 125 75 125 70 130 70 130 65z" fill="#AB1D8C"/></g><g id="change1_6"><path d="M115 75H120V80H115z" fill="#AB1D8C"/></g><g id="change1_7"><path d="M95 65L95 70 115 70 115 65 100 65 100 60 95 60z" fill="#AB1D8C"/></g><g fill="#FF999A" id="change3_1" opacity=".5"><path d="M90 60H95V85H90z"/><path d="M100 60L100 65 115 65 115 70 110 70 110 75 110 80 110 85 105 85 105 90 105 95 110 95 110 90 115 90 115 85 115 80 115 75 120 75 120 65 120 60z"/><path d="M100 95H105V100H100z"/><path d="M105 65H110V70H105z"/></g><g id="change2_3"><path d="M100 65H105V70H100z" fill="#060035" opacity=".8"/></g><g id="change2_4"><path d="M100 55H110V60H100z" fill="#060035" opacity=".5"/></g><g id="change2_5"><path d="M95 60H100V65H95z" fill="#060035" opacity=".5"/></g><g id="change3_5"><path d="M100 50H110V55H100z" fill="#FF999A" opacity=".5"/></g><g id="change3_6"><path d="M90 55H100V60H90z" fill="#FF999A" opacity=".5"/></g><g id="change3_7"><path d="M100 75H110V85H100z" fill="#FF999A"/></g><g id="change3_8"><path d="M100 85H105V95H100z" fill="#FF999A"/></g><g id="change3_9"><path d="M95 95H100V100H95z" fill="#FF999A"/></g><g id="change3_10"><path d="M100 60H110V65H100z" fill="#FF999A"/></g><g id="change3_11"><path d="M90 55H100V60H90z" fill="#FF999A"/></g><g id="change3_12"><path d="M100 50H110V55H100z" fill="#FF999A"/></g><g id="change3_13"><path d="M90 100H100V105H90z" fill="#FF999A"/></g><g id="change2_6"><path d="M110 55H120V60H110z" fill="#060035" opacity=".2"/></g><g id="change2_7"><path d="M120 65H125V75H120z" fill="#060035" opacity=".2"/></g><g id="change2_8"><path d="M100 25H105V35H100z" fill="#060035" opacity=".2"/></g><g id="change2_9"><path d="M95 15H100V25H95z" fill="#060035" opacity=".2"/></g><g id="change2_10"><path d="M110 35H115V45H110z" fill="#060035" opacity=".2"/></g><g id="change2_11"><path d="M115 25H120V35H115z" fill="#060035" opacity=".2"/></g><g id="change2_12"><path d="M110 20H115V25H110z" fill="#060035" opacity=".2"/></g><g id="change3_14"><path d="M100 15H105V25H100z" fill="#FF999A" opacity=".2"/></g><g id="change3_15"><path d="M105 25H110V35H105z" fill="#FF999A" opacity=".2"/></g><g id="change3_16"><path d="M100 35H105V45H100z" fill="#FF999A" opacity=".3"/></g><g id="change3_17"><path d="M115 45H120V55H115z" fill="#FF999A" opacity=".2"/></g><g id="change2_13"><path d="M100 25H105V35H100z" fill="#060035" opacity=".2"/></g><g id="change2_14"><path d="M115 25H120V35H115z" fill="#060035" opacity=".2"/></g><g id="change1_8"><path d="M60 75H65V80H60z" fill="#AB1D8C"/></g><g id="change1_9"><path d="M85 65L85 70 65 70 65 65 80 65 80 60 85 60z" fill="#AB1D8C"/></g><g id="change3_18"><path d="M90 90L80 90 80 95 85 95 85 100 90 100 95 100 95 95 100 95 100 90z" fill="#FF999A" opacity=".4"/></g><g fill="#FF999A" id="change3_4" opacity=".5"><path d="M85 60H90V85H85z"/><path d="M80 60L80 65 65 65 65 70 70 70 70 75 70 80 70 85 75 85 75 90 75 95 70 95 70 90 65 90 65 85 65 80 65 75 60 75 60 65 60 60z"/><path d="M75 95H80V100H75z"/><path d="M70 65H75V70H70z" transform="rotate(-180 72.5 67.5)"/></g><g id="change2_15"><path d="M75 65H80V70H75z" fill="#060035" opacity=".8" transform="rotate(-180 77.5 67.5)"/></g><g id="change2_16"><path d="M70 55H80V60H70z" fill="#060035" opacity=".5" transform="rotate(-180 75 57.5)"/></g><g id="change2_17"><path d="M80 60H85V65H80z" fill="#060035" opacity=".5" transform="rotate(-180 82.5 62.5)"/></g><g id="change3_19"><path d="M70 50H80V55H70z" fill="#FF999A" opacity=".5" transform="rotate(-180 75 52.5)"/></g><g id="change3_20"><path d="M80 55H90V60H80z" fill="#FF999A" opacity=".5" transform="rotate(-180 85 57.5)"/></g><g id="change3_21"><path d="M70 75H80V85H70z" fill="#FF999A" transform="rotate(-180 75 80)"/></g><g id="change3_22"><path d="M75 85H80V95H75z" fill="#FF999A" transform="rotate(-180 77.5 90)"/></g><g id="change3_23"><path d="M80 95H85V100H80z" fill="#FF999A" transform="rotate(-180 82.5 97.5)"/></g><g id="change3_24"><path d="M70 60H80V65H70z" fill="#FF999A" transform="rotate(-180 75 62.5)"/></g><g id="change3_25"><path d="M80 55H90V60H80z" fill="#FF999A" transform="rotate(-180 85 57.5)"/></g><g id="change3_26"><path d="M70 50H80V55H70z" fill="#FF999A" transform="rotate(-180 75 52.5)"/></g><g id="change3_27"><path d="M80 100H90V105H80z" fill="#FF999A" transform="rotate(-180 85 102.5)"/></g><g id="change3_28"><path d="M100 70L100 65 95 65 95 60 90 60 85 60 85 65 80 65 80 70 70 70 70 75 80 75 80 90 90 90 100 90 100 75 110 75 110 70z" fill="#FF999A" opacity=".8"/></g><g id="change2_18"><path d="M60 55H70V60H60z" fill="#060035" opacity=".2" transform="rotate(-180 65 57.5)"/></g><g id="change2_19"><path d="M55 65H60V75H55z" fill="#060035" opacity=".2" transform="rotate(-180 57.5 70)"/></g><g id="change2_20"><path d="M75 25H80V35H75z" fill="#060035" opacity=".2" transform="rotate(-180 77.5 30)"/></g><g id="change2_21"><path d="M80 15H85V25H80z" fill="#060035" opacity=".2" transform="rotate(-180 82.5 20)"/></g><g id="change2_22"><path d="M65 35H70V45H65z" fill="#060035" opacity=".2" transform="rotate(-180 67.5 40)"/></g><g id="change2_23"><path d="M60 25H65V35H60z" fill="#060035" opacity=".2" transform="rotate(-180 62.5 30)"/></g><g id="change2_24"><path d="M65 20H70V25H65z" fill="#060035" opacity=".2" transform="rotate(-180 67.5 22.5)"/></g><g id="change3_29"><path d="M75 15H80V25H75z" fill="#FF999A" opacity=".2" transform="rotate(-180 77.5 20)"/></g><g id="change3_30"><path d="M70 25H75V35H70z" fill="#FF999A" opacity=".2" transform="rotate(-180 72.5 30)"/></g><g id="change3_31"><path d="M75 35H80V45H75z" fill="#FF999A" opacity=".3" transform="rotate(-180 77.5 40)"/></g><g id="change3_32"><path d="M60 45H65V55H60z" fill="#FF999A" opacity=".2" transform="rotate(-180 62.5 50)"/></g><g id="change2_25"><path d="M75 25H80V35H75z" fill="#060035" opacity=".2" transform="rotate(-180 77.5 30)"/></g><g id="change2_26"><path d="M60 25H65V35H60z" fill="#060035" opacity=".2" transform="rotate(-180 62.5 30)"/></g><g fill="#060035" id="change2_2"><path d="M110 40L110 45 100 45 100 35 95 35 95 55 100 55 100 50 110 50 110 60 115 60 115 40z" opacity=".2"/><path d="M80 45L70 45 70 40 65 40 65 60 70 60 70 50 80 50 80 55 85 55 85 35 80 35z" opacity=".2"/></g><g id="change2_27"><path d="M90 50L70 50 70 55 90 55 110 55 110 50z" fill="#060035" opacity=".2"/></g><g id="change1_10"><path d="M70 50H80V55H70z" fill="#AB1D8C" opacity=".5"/></g><g id="change1_11"><path d="M100 50H110V55H100z" fill="#AB1D8C" opacity=".5"/></g><g id="change2_28"><path d="M85 90H95V95H85z" fill="#060035" opacity=".5"/></g><g id="change3_33"><path d="M85 45H90V50H85z" fill="#FF999A" opacity=".2"/></g><g id="change3_34"><path d="M90 40H95V45H90z" fill="#FF999A" opacity=".2"/></g><g id="change3_35"><path d="M85 35H90V40H85z" fill="#FF999A" opacity=".2"/></g><g id="change3_36"><path d="M90 30H95V35H90z" fill="#FF999A" opacity=".2"/></g><g id="change3_37"><path d="M85 25H90V30H85z" fill="#FF999A" opacity=".2"/></g><g id="change3_38"><path d="M90 20H95V25H90z" fill="#FF999A" opacity=".2"/></g><g id="change3_39"><path d="M85 15H90V20H85z" fill="#FF999A" opacity=".2"/></g><g id="change2_29"><path d="M85 30H90V35H85z" fill="#060035" opacity=".3"/></g><g id="change2_30"><path d="M90 25H95V30H90z" fill="#060035" opacity=".3"/></g></g><g id="change3_44"><path d="M145 15L140 15 140 10 135 10 135 15 130 15 130 20 135 20 135 25 140 25 140 20 145 20z" fill="#FF999A" opacity=".5"/></g><g id="change3_45"><path d="M50 95L45 95 45 90 40 90 40 95 35 95 35 100 40 100 40 105 45 105 45 100 50 100z" fill="#FF999A" opacity=".5"/></g><g id="change3_46"><path d="M45 50H50V55H45z" fill="#FF999A"/></g><g id="change3_47"><path d="M60 10H65V15H60z" fill="#FF999A"/></g><g id="change3_48"><path d="M125 35H130V40H125z" fill="#FF999A"/></g><g id="change3_49"><path d="M125 90H130V95H125z" fill="#FF999A"/></g><g id="change3_50"><path d="M115 100H120V105H115z" fill="#FF999A"/></g><g id="change3_51"><path d="M60 100H65V105H60z" fill="#FF999A"/></g><g id="change3_52"><path d="M40 95H45V100H40z" fill="#FF999A"/></g><g id="change3_53"><path d="M135 15H140V20H135z" fill="#FF999A"/></g><g fill="#AB1D8C" id="change1_2" opacity=".5"><path d="M0 10H5V105H0z"/><path d="M5 105H10V110H5z"/><path d="M10 110H170V115H10z"/></g><g fill="#FF999A" id="change3_3" opacity=".7"><path d="M5 5H10V10H5z"/><path d="M10 0H170V5H10z"/><path d="M170 5H175V10H170z"/><path d="M175 10H180V105H175z"/><path d="M170 105H175V110H170z"/></g><g id="change4_2"><path d="M175 135L175 130 170 130 170 125 10 125 10 130 5 130 5 135 0 135 0 145 5 145 5 150 10 150 10 155 170 155 170 150 175 150 175 145 180 145 180 135z" fill="#0091D1"/></g><g fill="#AB1D8C" id="change1_4"><path d="M15 30L15 35 15 45 20 45 20 35 25 35 25 45 30 45 30 35 30 30z"/><path d="M15 50H30V55H15z"/><path d="M15 60H20V65H15z"/><path d="M25 60H30V65H25z"/><path d="M15 75L20 75 20 80 25 80 25 75 30 75 30 70 15 70z"/><path d="M15 85H30V90H15z"/></g><g fill="#AB1D8C" id="change1_1"><path d="M150 30L150 35 160 35 160 45 165 45 165 35 165 30z"/><path d="M160 50H165V60H160z"/><path d="M150 65H165V70H150z"/><path d="M155 55L155 50 150 50 150 55 150 60 155 60z"/><path d="M150 80L155 80 155 85 160 85 160 80 165 80 165 75 150 75z"/><path d="M150 90H165V95H150z"/></g><g fill="#AB1D8C" id="change1_12" opacity=".5"><path d="M5 130H10V135H5z"/><path d="M0 135H5V145H0z"/><path d="M5 145H10V150H5z"/><path d="M10 150H170V155H10z"/></g><g fill="#FF999A" id="change3_2" opacity=".7"><path d="M10 125H170V130H10z"/><path d="M170 130H175V135H170z"/><path d="M175 135H180V145H175z"/><path d="M170 145H175V150H170z"/></g><g id="change1_17"><path d="M50 135H55V145H50z" fill="#AB1D8C"/></g><g id="change1_18"><path d="M55 135H65V140H55z" fill="#AB1D8C"/></g><g id="change1_19"><path d="M60 140H65V145H60z" fill="#AB1D8C"/></g><g id="change1_20"><path d="M110 135H115V145H110z" fill="#AB1D8C"/></g><g id="change1_21"><path d="M115 140H125V145H115z" fill="#AB1D8C"/></g><g id="change1_22"><path d="M125 135H130V145H125z" fill="#AB1D8C"/></g><g id="change1_23"><path d="M70 135H75V145H70z" fill="#AB1D8C"/></g><g id="change1_24"><path d="M80 135H85V140H80z" fill="#AB1D8C"/></g><g id="change1_25"><path d="M90 140H95V145H90z" fill="#AB1D8C"/></g><g id="change1_26"><path d="M100 135H105V145H100z" fill="#AB1D8C"/></g><g fill="#060035" id="change2_1" opacity=".5"><path d="M35 160L35 170 40 170 40 160 45 160 45 155 35 155z"/><path d="M135 155L135 160 135 170 140 170 140 160 145 160 145 155z"/><path d="M35 175H40V180H35z"/><path d="M135 175H140V180H135z"/></g><g id="change2_41"><path d="M35 205H40V210H35z" fill="#060035" opacity=".3"/></g><g id="change2_42"><path d="M135 205H140V210H135z" fill="#060035" opacity=".3"/></g><g id="change3_54"><path d="M45 0H160V5H45z" fill="#FF999A"/></g><g id="change3_55"><path d="M170 5H175V10H170z" fill="#FF999A"/></g><g id="change3_56"><path d="M175 20H180V75H175z" fill="#FF999A"/></g><g id="change3_57"><path d="M175 80H180V85H175z" fill="#FF999A"/></g><g id="change3_58"><path d="M35 0H40V5H35z" fill="#FF999A"/></g><g id="change3_59"><path d="M45 125H160V130H45z" fill="#FF999A"/></g><g id="change3_60"><path d="M170 130H175V135H170z" fill="#FF999A"/></g><g id="change3_61"><path d="M175 135H180V145H175z" fill="#FF999A"/></g><g id="change3_62"><path d="M35 125H40V130H35z" fill="#FF999A"/></g></g></svg>