<?xml version="1.0" encoding="UTF-8"?><svg xmlns="http://www.w3.org/2000/svg" xmlns:xlink="http://www.w3.org/1999/xlink" height="195.0" preserveAspectRatio="xMidYMid meet" version="1.0" viewBox="0.0 0.0 100.0 195.0" width="100.0" zoomAndPan="magnify"><g><g id="change1_1"><path d="M95 100L95 95 90 95 90 90 85 90 80 90 80 85 75 85 75 80 80 80 80 75 85 75 90 75 90 70 85 70 85 60 85 55 80 55 75 55 75 50 75 45 70 45 70 35 70 30 65 30 60 30 60 15 55 15 55 0 50 0 45 0 45 15 40 15 40 30 35 30 30 30 30 45 25 45 25 55 20 55 15 55 15 70 10 70 10 75 15 75 20 75 20 80 25 80 25 85 20 85 20 90 10 90 10 95 5 95 5 100 0 100 0 105 5 105 5 110 10 110 10 115 15 115 15 120 10 120 10 125 10 130 5 130 5 135 10 135 10 140 10 145 15 145 15 150 25 150 25 155 40 155 40 185 35 185 35 190 30 190 30 195 35 195 40 195 45 195 50 195 55 195 60 195 70 195 70 190 65 190 65 185 60 185 60 175 60 170 60 155 75 155 75 150 85 150 85 145 90 145 90 140 90 135 95 135 95 130 90 130 90 125 90 120 85 120 85 115 90 115 90 110 95 110 95 105 100 105 100 100z" fill="#2E1B5B"/></g><g id="change2_1"><path d="M35 190L35 185 40 185 40 140 60 140 60 185 65 185 65 190 70 190 70 195 30 195 30 190z" fill="#932600"/></g><g id="change3_1"><path d="M5 100L5 95 10 95 10 90 20 90 20 85 25 85 25 80 20 80 20 75 10 75 10 70 15 70 15 55 25 55 25 45 30 45 30 30 35 30 40 30 40 15 45 15 45 0 55 0 55 15 60 15 60 30 70 30 70 45 75 45 75 55 85 55 85 70 90 70 90 75 80 75 80 80 75 80 75 85 80 85 80 90 90 90 90 95 95 95 95 100 100 100 100 105 95 105 95 110 90 110 90 115 85 115 85 120 90 120 90 125 90 130 95 130 95 135 90 135 90 140 90 145 85 145 85 150 75 150 75 155 25 155 25 150 15 150 15 145 10 145 10 140 10 135 5 135 5 130 10 130 10 125 10 120 15 120 15 115 10 115 10 110 5 110 5 105 0 105 0 100z" fill="#10D000"/></g><g fill="#A4FFDE" id="change4_1"><path d="M55 15H60V30H55z"/><path d="M50 0H55V15H50z"/><path d="M65 35H70V45H65z"/><path d="M60 30H65V35H60z"/><path d="M70 45H75V50H70z"/><path d="M65 50H70V55H65z"/><path d="M80 55H85V60H80z"/><path d="M75 60H80V65H75z"/><path d="M85 70H90V75H85z"/><path d="M70 70H80V75H70z"/><path d="M70 80H75V85H70z"/><path d="M75 85H80V90H75z"/><path d="M90 105H95V110H90z"/><path d="M85 110H90V115H85z"/><path d="M70 110H80V115H70z"/><path d="M80 115H85V120H80z"/><path d="M85 125H90V130H85z"/><path d="M80 130H85V135H80z"/><path d="M85 95H90V100H85z"/></g><g id="change5_1"><path d="M45 85H60V90H45z" fill="#005B52" opacity=".5" transform="rotate(-180 52.5 87.5)"/></g><g id="change5_2"><path d="M40 120H55V125H40z" fill="#005B52" opacity=".5" transform="rotate(-180 47.5 122.5)"/></g><g id="change5_3"><path d="M25 120H30V125H25z" fill="#005B52" opacity=".5" transform="rotate(-180 27.5 122.5)"/></g><g id="change5_4"><path d="M25 90H30V95H25z" fill="#005B52" opacity=".5" transform="rotate(-180 27.5 92.5)"/></g><g id="change5_5"><path d="M25 60H30V75H25z" fill="#005B52" opacity=".5" transform="rotate(-180 27.5 67.5)"/></g><g id="change5_6"><path d="M35 75H40V85H35z" fill="#005B52" opacity=".5" transform="rotate(-180 37.5 80)"/></g><g id="change5_7"><path d="M35 30H40V45H35z" fill="#005B52" opacity=".5" transform="rotate(-180 37.5 37.5)"/></g><g id="change5_8"><path d="M15 105H20V110H15z" fill="#005B52" opacity=".5" transform="rotate(-180 17.5 107.5)"/></g><g fill="#005B52" id="change5_30"><path d="M40 135L45 135 55 135 55 140 45 140 40 140 30 140 30 145 25 145 25 140 20 140 20 135z" opacity=".5"/><path d="M55 140H75V145H55z" opacity=".5"/></g><g id="change5_9"><path d="M50 40H60V45H50z" fill="#005B52" opacity=".5" transform="rotate(-180 55 42.5)"/></g><g id="change5_10"><path d="M55 30H60V35H55z" fill="#005B52" opacity=".5" transform="rotate(-180 57.5 32.5)"/></g><g id="change5_11"><path d="M65 55H75V60H65z" fill="#005B52" opacity=".5" transform="rotate(-180 70 57.5)"/></g><g id="change5_12"><path d="M60 60H65V65H60z" fill="#005B52" opacity=".5" transform="rotate(-180 62.5 62.5)"/></g><g id="change5_13"><path d="M40 65H45V70H40z" fill="#005B52" opacity=".5" transform="rotate(-180 42.5 67.5)"/></g><g id="change5_14"><path d="M75 65H80V70H75z" fill="#005B52" opacity=".5" transform="rotate(-180 77.5 67.5)"/></g><g id="change5_15"><path d="M60 70H65V75H60z" fill="#005B52" opacity=".5" transform="rotate(-180 62.5 72.5)"/></g><g id="change5_16"><path d="M65 75H75V80H65z" fill="#005B52" opacity=".5" transform="rotate(-180 70 77.5)"/></g><g id="change5_17"><path d="M80 90H85V95H80z" fill="#005B52" opacity=".5" transform="rotate(-180 82.5 92.5)"/></g><g id="change5_18"><path d="M65 95H75V100H65z" fill="#005B52" opacity=".5" transform="rotate(-180 70 97.5)"/></g><g id="change5_19"><path d="M80 100H90V105H80z" fill="#005B52" opacity=".5" transform="rotate(-180 85 102.5)"/></g><g id="change5_20"><path d="M60 105H70V110H60z" fill="#005B52" opacity=".5" transform="rotate(-180 65 107.5)"/></g><g id="change5_21"><path d="M80 120H85V125H80z" fill="#005B52" opacity=".5" transform="rotate(-180 82.5 122.5)"/></g><g id="change5_22"><path d="M70 125H75V130H70z" fill="#005B52" opacity=".5" transform="rotate(-180 72.5 127.5)"/></g><g id="change5_23"><path d="M50 55H55V60H50z" fill="#005B52" opacity=".5" transform="rotate(-180 52.5 57.5)"/></g><g id="change5_24"><path d="M30 55H35V60H30z" fill="#005B52" opacity=".5" transform="rotate(-180 32.5 57.5)"/></g><g id="change5_25"><path d="M55 65H60V70H55z" fill="#005B52" opacity=".5" transform="rotate(-180 57.5 67.5)"/></g><g id="change5_26"><path d="M50 95H55V100H50z" fill="#005B52" opacity=".5" transform="rotate(-180 52.5 97.5)"/></g><g id="change5_27"><path d="M55 110H60V115H55z" fill="#005B52" opacity=".5" transform="rotate(-180 57.5 112.5)"/></g><g id="change5_28"><path d="M60 125H65V130H60z" fill="#005B52" opacity=".5" transform="rotate(-180 62.5 127.5)"/></g><g id="change5_29"><path d="M50 80H55V85H50z" fill="#005B52" opacity=".5" transform="rotate(-180 52.5 82.5)"/></g><g fill="#2E1B5B" id="change1_2"><path d="M30 30H35V45H30z"/><path d="M25 45H30V55H25z"/><path d="M20 60L25 60 25 55 20 55 15 55 15 70 20 70z"/><path d="M10 70H15V75H10z"/><path d="M20 75H25V80H20z"/><path d="M20 85H25V90H20z"/><path d="M35 85L35 80 35 75 30 75 30 80 25 80 25 85 30 85z"/><path d="M10 90H20V95H10z"/><path d="M5 95H10V100H5z"/><path d="M0 100H5V105H0z"/><path d="M5 105H10V110H5z"/><path d="M40 75H45V80H40z"/><path d="M15 100H20V105H15z"/><path d="M10 110H15V115H10z"/><path d="M75 145H85V150H75z"/><path d="M15 145H25V150H15z"/><path d="M15 125L25 125 25 120 25 115 15 115 15 120 10 120 10 130 15 130z"/><path d="M5 130H10V135H5z"/><path d="M10 135H15V145H10z"/><path d="M40 140H45V145H40z"/><path d="M40 150L40 145 30 145 30 150 25 150 25 155 40 155 40 185 45 185 45 170 50 170 50 165 45 165 45 155 75 155 75 150 45 150z"/><path d="M35 185H40V190H35z"/><path d="M30 190H35V195H30z"/><path d="M45 185H50V190H45z"/><path d="M55 190H60V195H55z"/><path d="M40 190H45V195H40z"/></g><g fill="#005B52" id="change5_31"><path d="M10 100L10 95 15 95 20 95 20 100 15 100 15 110 10 110 10 105 5 105 5 100z"/><path d="M30 110L30 115 35 115 40 115 40 110 45 110 45 115 70 115 70 120 40 120 35 120 25 120 25 115 15 115 15 110 25 110z"/><path d="M15 125L25 125 25 130 25 135 20 135 20 140 25 140 25 145 20 145 15 145 15 135 10 135 10 130 15 130z"/><path d="M25 145H30V150H25z"/><path d="M30 140H40V145H30z"/><path d="M75 140H85V145H75z"/><path d="M45 140L55 140 55 145 75 145 75 150 40 150 40 145 45 145z"/><path d="M75 115H80V120H75z"/><path d="M30 85L30 80 70 80 70 85 35 85 35 90 25 90 25 85z"/><path d="M20 90H25V95H20z"/><path d="M25 75H30V80H25z"/><path d="M15 70L20 70 20 60 25 60 25 70 25 75 15 75z"/><path d="M25 55H30V60H25z"/><path d="M30 45H35V50H30z"/><path d="M20 100H25V105H20z"/><path d="M30 70H35V75H30z"/><path d="M30 130H35V135H30z"/><path d="M30 100H35V105H30z"/><path d="M45 155H55V160H45z"/><path d="M40 185H45V190H40z"/><path d="M45 170H50V175H45z"/><path d="M55 170H60V175H55z"/><path d="M35 190H40V195H35z"/><path d="M50 190H55V195H50z"/><path d="M50 180H55V185H50z"/></g></g></svg>