<?xml version="1.0" encoding="UTF-8"?><svg xmlns="http://www.w3.org/2000/svg" xmlns:xlink="http://www.w3.org/1999/xlink" height="165.0" preserveAspectRatio="xMidYMid meet" version="1.0" viewBox="0.0 0.0 500.0 165.0" width="500.0" zoomAndPan="magnify"><g><g id="change1_1"><path d="M495 160L495 155 490 155 490 150 485 150 480 150 480 145 475 145 475 135 465 135 465 130 465 125 460 125 460 120 455 120 455 115 455 110 450 110 450 105 445 105 445 100 445 95 440 95 440 90 435 90 430 90 430 85 425 85 425 80 420 80 420 75 415 75 415 70 410 70 410 65 405 65 400 65 395 65 390 65 390 70 385 70 385 75 380 75 380 80 380 85 375 85 375 90 370 90 365 90 365 95 355 95 350 95 350 90 350 85 340 85 340 80 330 80 330 75 320 75 320 70 310 70 310 65 305 65 305 60 305 55 300 55 295 55 295 50 295 45 290 45 290 35 285 35 285 30 285 25 280 25 275 25 275 20 265 20 265 15 260 15 260 10 255 10 255 5 250 5 250 0 240 0 235 0 230 0 230 5 225 5 225 10 220 10 220 15 215 15 210 15 210 20 210 25 205 25 205 30 195 30 195 35 195 40 190 40 190 50 185 50 180 50 180 55 180 60 170 60 170 65 165 65 165 70 160 70 160 75 155 75 155 80 145 80 145 75 140 75 140 70 135 70 130 70 130 75 125 75 125 80 120 80 120 85 120 90 110 90 110 95 105 95 105 100 95 100 95 95 90 95 85 95 80 95 75 95 75 100 70 100 70 105 65 105 65 110 60 110 55 110 55 115 55 120 50 120 50 125 50 130 40 130 40 135 35 135 35 140 30 140 30 145 15 145 15 150 10 150 10 155 5 155 5 160 0 160 0 165 5 165 20 165 25 165 30 165 55 165 58 165 60 165 65 165 80 165 100 165 140 165 145 165 150 165 160 165 165 165 170 165 170.8 165 175.1 165 180 165 182.9 165 185 165 190 165 194.4 165 195 165 200 165 205 165 210 165 210.5 165 214.8 165 215 165 220 165 225.1 165 230.7 165 270 165 285 165 310 165 315 165 320 165 335 165 340 165 344.7 165 410 165 415 165 425 165 430 165 435 165 440 165 445 165 450 165 459.9 165 500 165 500 160z" fill="#2E1B5B"/></g><g id="change2_1"><path d="M495 160L495 155 490 155 490 150 480 150 480 145 475 145 475 135 465 135 465 130 465 125 460 125 460 120 455 120 455 110 450 110 450 105 445 105 445 95 440 95 440 90 430 90 430 85 425 85 425 80 420 80 420 75 415 75 415 70 410 70 410 65 390 65 390 70 385 70 385 75 380 75 380 80 380 85 375 85 375 90 365 90 365 95 350 95 350 85 340 85 340 80 330 80 330 75 320 75 320 70 310 70 310 65 305 65 305 55 295 55 295 45 290 45 290 35 285 35 285 25 275 25 275 20 265 20 265 15 260 15 260 10 255 10 255 5 250 5 250 0 230 0 230 5 225 5 225 10 220 10 220 15 215 15 210 15 210 20 210 25 205 25 205 30 195 30 195 40 190 40 190 50 180 50 180 60 170 60 170 65 165 65 165 70 160 70 160 75 155 75 155 80 145 80 145 75 140 75 140 70 130 70 130 75 125 75 125 80 120 80 120 85 120 90 110 90 110 95 105 95 105 100 95 100 95 95 75 95 75 100 70 100 70 105 65 105 65 110 55 110 55 115 55 120 50 120 50 125 50 130 40 130 40 135 35 135 35 145 15 145 15 150 10 150 10 155 5 155 5 160 0 160 0 165 500 165 500 160z" fill="#5881AE"/></g><g fill="#2C508C" id="change3_1"><path d="M95 155L85 155 85 150 80 150 80 145 75 145 75 135 70 135 70 125 65 125 65 120 60 120 60 115 65 115 65 110 60 110 55 110 55 120 50 120 50 125 50 130 40 130 40 135 35 135 35 140 30 140 30 145 15 145 15 150 10 150 10 155 5 155 5 160 0 160 0 165 20 165 20 160 25 160 25 155 30 155 35 155 35 150 40 150 45 150 45 145 50 145 50 150 45 150 45 155 45 160 50 160 50 155 55 155 55 150 55 145 60 145 60 140 65 140 65 145 70 145 70 150 75 150 75 155 80 155 80 160 80 165 100 165 100 160 95 160z"/><path d="M58 165L60 165 65 165 65 160 60 160 60 155 55 155 55 165z"/><path d="M110 130H115V135H110z"/><path d="M230 5L225 5 225 10 220 10 220 15 215 15 210 15 210 25 205 25 205 30 195 30 195 40 190 40 190 50 180 50 180 60 170 60 170 65 165 65 165 70 160 70 160 75 155 75 155 80 145 80 145 85 140 85 140 90 135 90 135 95 130 95 125 95 125 100 120 100 120 105 120 110 115 110 110 110 110 105 115 105 115 100 120 100 120 95 125 95 125 85 130 85 130 80 135 80 135 75 135 70 130 70 130 75 125 75 125 80 120 80 120 85 120 90 110 90 110 95 105 95 105 100 95 100 95 105 100 105 100 110 105 110 105 120 110 120 110 125 115 125 115 130 120 130 120 135 125 135 125 140 130 140 130 145 135 145 140 145 140 150 140 155 145 155 145 160 150 160 150 165 160 165 165 165 170 165 170.8 165 175.1 165 180 165 182.9 165 185 165 190 165 194.4 165 195 165 200 165 205 165 210 165 210.5 165 214.8 165 215 165 220 165 225.1 165 230.7 165 230.7 160 225.1 160 225.1 155 230 155 230 150 225 150 225 155 220 155 220 145 214.8 145 214.8 140 205 140 205 135 200 135 200 125 194.4 125 194.4 120 190 120 190 115 185 115 185 110 180 110 180 115 180 120 170 120 170 125 165 125 165 120 165 115 170 115 175 115 175 110 170 110 170 105 175 105 175 100 180 100 180 95 185 95 190 95 190 90 185 90 185 85 195 85 195 80 200 80 200 75 195 75 195 70 200 70 205 70 205 65 200 65 200 60 205 60 205 55 200 55 200 50 205 50 205 40 210 40 210 35 220 35 220 40 225 40 225 35 225 30 220 30 220 25 225 25 225 20 230 20 235 20 235 15 230 15 230 10 235 10 235 5 235 0 230 0z"/><path d="M450 155L440 155 440 150 435 150 430 150 430 145 425 145 425 140 415 140 415 135 410 135 410 130 405 130 405 125 400 125 400 120 395 120 395 115 390 115 390 110 380 110 380 105 375 105 375 100 380 100 380 95 385 95 385 90 390 90 390 80 395 80 395 75 395 70 400 70 400 65 395 65 390 65 390 70 385 70 385 75 380 75 380 85 375 85 375 90 365 90 365 95 355 95 350 95 350 100 355 100 355 105 360 105 360 110 365 110 365 115 375 115 375 120 380 120 380 125 385 125 385 130 385 135 390 135 390 130 395 130 395 135 400 135 400 145 405 145 405 150 410 150 410 155 415 155 415 160 425 160 425 165 430 165 435 165 440 165 445 165 450 165 459.9 165 459.9 160 450 160z"/><path d="M330 155L330 150 325 150 325 155 320 155 320 150 315 150 315 145 310 145 310 150 305 150 305 145 310 145 310 140 310 135 305 135 305 140 300 140 300 135 295 135 295 130 290 130 290 125 290 120 285 120 285 125 280 125 280 120 280 115 275 115 275 110 270 110 270 105 265 105 265 100 260 100 260 105 260 110 260 115 265 115 265 120 260 120 260 125 260 130 265 130 265 135 265 140 270 140 270 145 275 145 275 150 270 150 270 155 275 155 275 160 270 160 270 165 335 165 335 160 330 160z"/><path d="M255 95H260V100H255z"/><path d="M225 25H230V30H225z"/><path d="M210 40H215V45H210z"/><path d="M205 50H210V55H205z"/><path d="M215 45H220V50H215z"/><path d="M205 60H210V65H205z"/><path d="M200 80H205V85H200z"/><path d="M195 85H200V90H195z"/><path d="M180 100H185V105H180z"/><path d="M190 95H195V100H190z"/><path d="M175 105H180V110H175z"/><path d="M200 120H205V125H200z"/><path d="M195 115H200V120H195z"/><path d="M205 130H210V135H205z"/><path d="M210 125H215V130H210z"/><path d="M215 135H220V140H215z"/><path d="M255 115H260V120H255z"/><path d="M265 95H270V100H265z"/><path d="M280 110H285V115H280z"/><path d="M295 125H300V130H295z"/><path d="M300 130H305V135H300z"/><path d="M320 145H325V150H320z"/><path d="M335 155H340V160H335z"/><path d="M340 160H344.7V165H340z"/><path d="M255 130H260V135H255z"/><path d="M260 140H265V145H260z"/><path d="M265 145H270V150H265z"/><path d="M260 155H265V160H260z"/><path d="M65 115H70V120H65z"/><path d="M75 130H80V135H75z"/><path d="M70 120H75V125H70z"/><path d="M80 140H85V145H80z"/><path d="M80 125H85V130H80z"/><path d="M85 145H90V150H85z"/><path d="M95 150H100V155H95z"/><path d="M100 155H105V160H100z"/><path d="M35 155H40V160H35z"/><path d="M25 160H30V165H25z"/><path d="M60 150H65V155H60z"/><path d="M70 155H75V160H70z"/><path d="M105 125H110V130H105z"/><path d="M120 140H125V145H120z"/><path d="M115 145H120V150H115z"/><path d="M125 145H130V150H125z"/><path d="M130 150H135V155H130z"/><path d="M140 160H145V165H140z"/><path d="M130 85H135V90H130z"/><path d="M345 90H350V95H345z"/><path d="M350 105H355V110H350z"/><path d="M355 110H360V115H355z"/><path d="M370 120H375V125H370z"/><path d="M375 125H380V130H375z"/><path d="M390 135H395V140H390z"/><path d="M395 145H400V150H395z"/><path d="M400 150H405V155H400z"/><path d="M410 160H415V165H410z"/><path d="M380 135H385V140H380z"/><path d="M385 145H390V150H385z"/><path d="M380 100H385V105H380z"/><path d="M390 90H395V95H390z"/><path d="M390 105H395V110H390z"/><path d="M395 80H400V85H395z"/><path d="M385 95H390V100H385z"/><path d="M395 110H400V115H395z"/><path d="M405 115H410V120H405z"/><path d="M410 125H415V130H410z"/><path d="M425 135H430V140H425z"/><path d="M430 140H435V145H430z"/><path d="M440 145H445V150H440z"/><path d="M450 150H455V155H450z"/><path d="M460 155H465V160H460z"/></g><g fill="#7CAAC9" id="change4_1"><path d="M315 135L320 135 320 130 325 130 325 125 315 125 315 130z"/><path d="M320 135H325V140H320z"/><path d="M330 140H335V145H330z"/><path d="M355,115h-5v-5h-5v-5v-5v-5v-5h-5V80h-10v-5h-10v-5h-10v-5h-5v-5v-5h-10v-5v-5h-5V35h-5V25h-10v-5h-10v-5 h-5v-5h-5V5h-5V0h-10v5h-5v5h5v5v5h-5v5h-5v10v10h-5v5v5h-5v5h5v5v5h-5v5h5v5h10v5h5v5h5v-5h5v5h5v-5h5v5h15v5h5v5v5h10v5v5h10v5 h5v5h10v-5h5v-10h-10v-5h-5v-5h-5v-5h10v5h5v-5h5v5h10v5h10v5h-5v5h10v5v5h5v-5h5V115z M230,65h5v5h-5V65z"/><path d="M360 125H365V130H360z"/><path d="M355 135H365V140H355z"/><path d="M365 140H370V145H365z"/><path d="M230 85H235V90H230z"/><path d="M235 90H240V95H235z"/><path d="M220 85L215 85 215 90 220 90 220 95 225 95 225 90 225 85 225 80 220 80z"/><path d="M255 90H260V95H255z"/><path d="M270 95H275V100H270z"/><path d="M400 75H405V80H400z"/><path d="M400 85H405V90H400z"/><path d="M415 130H420V135H415z"/><path d="M485,150h-5v-5h-5v-10h-10v-5v-5h-5v-5h-5v-5v-5h-5v-5h-5V95h-5v-5h-10v-5h-5v-5h-5v-5h-5v-5h-5v-5h-10v5 h5v5h5v5h-5v5h5v5h-5v5h-5v5h-5v5h5h5v5h10v5h5v5h-5v5h5v5h5v5h5v-5h5v5h5v5h10v5h10v5h5v5h5v-5h5v5h5v5h5v-5h5v-5H485z M445,115 h5v5h-5V115z"/><path d="M210 90H215V95H210z"/><path d="M225 95H230V100H225z"/><path d="M245 95H250V100H245z"/><path d="M75 110H80V115H75z"/><path d="M105 110L100 110 100 105 95 105 95 100 95 95 80 95 80 100 85 100 85 105 80 105 80 110 85 110 85 115 80 115 80 120 90 120 90 125 95 125 95 130 90 130 90 135 95 135 95 140 100 140 100 135 105 135 105 130 105 125 110 125 110 120 105 120z"/><path d="M105 135H110V140H105z"/><path d="M215 100H220V105H215z"/><path d="M230 110H235V115H230z"/><path d="M235 100H240V105H235z"/><path d="M210 110H215V115H210z"/></g><g fill="#ACE7E8" id="change5_1"><path d="M260 15H265V20H260z"/><path d="M240 20H245V25H240z"/><path d="M250 25L255 25 255 20 255 15 260 15 260 10 255 10 255 5 250 5 250 0 240 0 240 5 240 10 245 10 245 15 245 20 250 20z"/><path d="M270 25L270 30 275 30 275 35 275 40 280 40 280 35 285 35 285 30 280 30 280 25 275 25 275 20 265 20 265 25z"/><path d="M260 45H265V50H260z"/><path d="M245 25H250V30H245z"/><path d="M240 30H245V35H240z"/><path d="M235 35H240V40H235z"/><path d="M245 45H250V50H245z"/><path d="M240 50H245V55H240z"/><path d="M250 50H255V55H250z"/><path d="M255 55H260V60H255z"/><path d="M405 65H410V70H405z"/><path d="M420 80L420 75 415 75 415 70 410 70 410 75 410 80 415 80 415 85 420 85z"/><path d="M415 90H420V95H415z"/><path d="M440 95L435 95 435 90 430 90 430 85 420 85 420 90 425 90 425 95 430 95 430 100 435 100 435 105 440 105 440 100 445 100 445 95z"/><path d="M425 100H430V105H425z"/><path d="M410 95H415V100H410z"/><path d="M420 95H425V100H420z"/><path d="M410 85H415V90H410z"/><path d="M275 45L275 50 280 50 280 55 285 55 285 50 290 50 290 45 285 45 285 40 280 40 280 45z"/><path d="M290 50H295V55H290z"/><path d="M285 55H290V60H285z"/><path d="M300 60L300 65 305 65 305 60 305 55 300 55 295 55 295 60z"/><path d="M290 60H295V65H290z"/><path d="M265 40L265 35 270 35 270 30 265 30 265 25 260 25 255 25 255 30 250 30 250 35 245 35 245 40 250 40 250 45 260 45 260 40z"/><path d="M95 100L95 95 90 95 85 95 85 100 85 105 90 105 90 100z"/><path d="M95 105L90 105 90 110 85 110 85 115 95 115 95 110z"/><path d="M95 115H100V120H95z"/><path d="M100 110H105V115H100z"/><path d="M100 120H105V125H100z"/><path d="M135 70H140V75H135z"/><path d="M140 75H145V80H140z"/><path d="M135 80H140V85H135z"/><path d="M280 80H285V85H280z"/><path d="M275 85H280V90H275z"/><path d="M285 90L285 95 290 95 290 90 295 90 295 85 285 85z"/><path d="M290 95H295V100H290z"/><path d="M280 70L275 70 275 75 270 75 270 80 280 80 280 75z"/><path d="M270 65H275V70H270z"/><path d="M275 60H280V65H275z"/><path d="M265 55H270V60H265z"/><path d="M295 70H300V75H295z"/><path d="M300 75H305V80H300z"/><path d="M305 80H310V85H305z"/><path d="M310 75H315V80H310z"/><path d="M315 85H320V90H315z"/></g><g fill="#2E1B5B" id="change1_2"><path d="M315 160H320V165H315z"/><path d="M305 155L300 155 300 160 295 160 295 155 300 155 300 150 295 150 295 145 285 145 285 150 290 150 290 155 285 155 285 150 280 150 280 155 280 160 285 160 285 165 310 165 310 160 305 160z"/><path d="M310 155H315V160H310z"/><path d="M280 140H285V145H280z"/><path d="M285 135H290V140H285z"/><path d="M370 105H375V110H370z"/><path d="M375 110H380V115H375z"/><path d="M380 115H385V120H380z"/><path d="M355 95L355 100 360 100 360 105 365 105 370 105 370 100 370 95 365 95z"/><path d="M370 90H375V95H370z"/><path d="M445 160H450V165H445z"/><path d="M435 155L430 155 425 155 425 160 430 160 430 165 440 165 440 160 435 160z"/><path d="M420 150L420 145 415 145 415 150 415 155 420 155 425 155 425 150z"/><path d="M140 120L140 125 135 125 130 125 130 130 125 130 125 125 120 125 120 120 120 115 115 115 115 120 110 120 110 125 115 125 115 130 120 130 120 135 125 135 125 140 130 140 130 145 140 145 140 155 145 155 145 160 150 160 150 165 160 165 215 165 215 160 200 160 200 155 195 155 195 150 185 150 185 155 180 155 180 150 175 150 175 155 170 155 170 160 160 160 160 155 170 155 170 150 175 150 175 145 170 145 165 145 165 150 160 150 160 145 150 145 150 150 145 150 145 145 150 145 150 140 145 140 145 135 140 135 140 130 150 130 150 135 155 135 155 130 155 125 160 125 160 120 155 120 155 115 160 115 165 115 165 110 160 110 160 105 150 105 150 110 145 110 145 115 140 115 135 115 135 120z"/><path d="M180 145H185V150H180z"/><path d="M200 150H205V155H200z"/><path d="M185 140H195V145H185z"/><path d="M180 135H185V140H180z"/><path d="M185 130H190V135H185z"/><path d="M170 135H175V140H170z"/><path d="M160 140H165V145H160z"/><path d="M125 120H130V125H125z"/><path d="M175 130H180V135H175z"/><path d="M125 110H135V115H125z"/><path d="M130 100L130 105 135 105 135 110 140 110 140 105 140 100 135 100z"/><path d="M110 100H115V105H110z"/><path d="M110 105L105 105 105 110 105 120 110 120 110 110z"/><path d="M160 100H165V105H160z"/><path d="M170 100H175V105H170z"/><path d="M165 90H170V95H165z"/><path d="M230 0H235V5H230z"/><path d="M225 5H230V10H225z"/><path d="M220 10H225V15H220z"/><path d="M210 15L210 20 210 25 215 25 215 20 220 20 220 15 215 15z"/><path d="M205 25H210V30H205z"/><path d="M195 35L195 40 200 40 200 35 205 35 205 30 195 30z"/><path d="M190 40H195V50H190z"/><path d="M180 50L180 55 180 60 185 60 185 55 190 55 190 50 185 50z"/><path d="M170 60H180V65H170z"/><path d="M165 65H170V70H165z"/><path d="M160 70H165V75H160z"/><path d="M155 75H160V80H155z"/><path d="M145 85L145 90 150 90 150 85 155 85 155 80 145 80z"/><path d="M140 95L140 100 145 100 145 95 145 90 140 90z"/><path d="M130 70H135V75H130z"/><path d="M125 75H130V80H125z"/><path d="M120 80H125V90H120z"/><path d="M110 90H120V95H110z"/><path d="M105 95H110V100H105z"/><path d="M95 100H105V105H95z"/><path d="M75 95H80V100H75z"/><path d="M70 100H75V105H70z"/><path d="M65 105H70V110H65z"/><path d="M55 115L55 120 60 120 60 115 65 115 65 110 55 110z"/><path d="M50 120H55V130H50z"/><path d="M40 130H50V135H40z"/><path d="M35 135H40V140H35z"/><path d="M30 140H35V145H30z"/><path d="M15 145H30V150H15z"/><path d="M10 150H15V155H10z"/><path d="M5 155H10V160H5z"/><path d="M0 160H5V165H0z"/><path d="M375 85H380V90H375z"/><path d="M380 75H385V85H380z"/><path d="M385 70H390V75H385z"/><path d="M390 65H395V70H390z"/></g></g></svg>