<?xml version="1.0" encoding="UTF-8"?><svg xmlns="http://www.w3.org/2000/svg" xmlns:xlink="http://www.w3.org/1999/xlink" height="315.0" preserveAspectRatio="xMidYMid meet" version="1.0" viewBox="0.0 0.0 65.0 315.0" width="65.0" zoomAndPan="magnify"><g id="change1_1"><path d="M40,95V80h25v-5h-5v-5h-5v5h-5v-5h-5v5h-5V60V50V40v-5h-5h-5V15V5V0h-5h-5v5v55h5v15h-5v-5h-5v5h-5v-5H5v5H0 v5h25v40h-5v10h5v10h-5v5h5v5v20v35H15v5v30h10v50h-5v5v5h-5v5v10h5h25h5v-10v-5h-5v-5v-5h-5v-50v-5v-10h10v-5v-5h-5v5h-5v-10v-5 v-55v-5h15v-5h-5v-5v-5v-5v-5H40v-10V95z M45,140h-5v-5h5V140z M45,125v5h-5v-5H45z" fill="#AB1D8C"/></g><g><g id="change1_2"><path d="M15 205H30V240H15z" fill="#AB1D8C"/></g><g id="change2_1"><path d="M60 75L60 70 55 70 55 75 50 75 50 70 45 70 45 75 20 75 20 70 15 70 15 75 10 75 10 70 5 70 5 75 0 75 0 80 65 80 65 75z" fill="#5448C5"/></g><g id="change1_3"><path d="M15 300H50V315H15z" fill="#AB1D8C"/></g><g id="change1_4"><path d="M20 290H45V300H20z" fill="#AB1D8C"/></g><g id="change3_1"><path d="M15 300H50V305H15z" fill="#060035" opacity=".5"/></g><g id="change3_2"><path d="M20 290H25V300H20z" fill="#060035" opacity=".2"/></g><g id="change3_3"><path d="M15 300H20V315H15z" fill="#060035" opacity=".2"/></g><g id="change3_4"><path d="M20 290H45V295H20z" fill="#060035" opacity=".5"/></g><g id="change4_1"><path d="M45 300H50V315H45z" fill="#FF4EA1" opacity=".5"/></g><g id="change4_2"><path d="M40 290H45V300H40z" fill="#FF4EA1" opacity=".5"/></g><g id="change1_5"><path d="M25 60H40V290H25z" fill="#AB1D8C"/></g><g id="change3_5"><path d="M25 60H30V290H25z" fill="#060035" opacity=".25"/></g><g id="change3_6"><path d="M25 170H30V290H25z" fill="#060035" opacity=".25"/></g><g id="change4_3"><path d="M35 95H40V290H35z" fill="#FF4EA1"/></g><g id="change3_7"><path d="M30 60H40V110H30z" fill="#060035" opacity=".25"/></g><g id="change2_2"><path d="M30 35H40V95H30z" fill="#5448C5"/></g><g id="change2_3"><path d="M20 0H30V60H20z" fill="#5448C5"/></g><g id="change5_1"><path d="M30 35H35V95H30z" fill="#FFEBB5"/></g><g id="change5_2"><path d="M20 0H25V60H20z" fill="#FFEBB5"/></g><g id="change2_4"><path d="M50,140v-5v-5v-5v-5H40H25v20h-5v5h5v5h15v-5h15v-5H50z M45,140h-5v-5h5V140z M45,130h-5v-5h5V130z" fill="#5448C5"/></g><g id="change2_5"><path d="M20 120H25V130H20z" fill="#5448C5"/></g><g id="change2_6"><path d="M20 140H25V145H20z" fill="#5448C5"/></g><g id="change2_7"><path d="M25 205H40V210H25z" fill="#5448C5"/></g><g id="change2_8"><path d="M25 220H50V225H25z" fill="#5448C5"/></g><g id="change2_9"><path d="M25 235H40V240H25z" fill="#5448C5"/></g><g id="change4_4"><path d="M20 0H30V5H20z" fill="#FF4EA1"/></g><g id="change4_5"><path d="M30 35H40V40H30z" fill="#FF4EA1"/></g><g id="change3_8"><path d="M15 205H25V210H15z" fill="#060035" opacity=".25"/></g><g id="change2_10"><path d="M45 215H50V220H45z" fill="#5448C5"/></g><g id="change4_6"><path d="M45 215L45 220 40 220 40 205 35 205 35 240 40 240 40 225 50 225 50 220 50 215z" fill="#FF4EA1" opacity=".5"/></g><g id="change4_7"><path d="M50,140v-15v-5H40h-5v30h5v-5h15v-5H50z M40,125h5v5h-5V125z M40,140v-5h5v5H40z" fill="#FF4EA1" opacity=".25"/></g><g id="change4_8"><path d="M25 5H30V15H25z" fill="#FF4EA1" opacity=".25"/></g><g id="change4_9"><path d="M35 40H40V50H35z" fill="#FF4EA1" opacity=".25"/></g></g></svg>