<?xml version="1.0" encoding="UTF-8"?><svg xmlns="http://www.w3.org/2000/svg" xmlns:xlink="http://www.w3.org/1999/xlink" height="315.0" preserveAspectRatio="xMidYMid meet" version="1.0" viewBox="0.0 0.0 315.0 315.0" width="315.0" zoomAndPan="magnify"><g><g id="change1_7"><path d="M310 105L310 100 310 95 305 95 305 90 305 85 300 85 300 75 295 75 295 70 295 65 295 60 300 60 300 50 295 50 295 45 300 45 300 10 300 5 295 5 295 0 20 0 20 5 15 5 15 40 15 45 20 45 20 50 15 50 15 60 20 60 20 65 20 70 20 75 15 75 15 85 10 85 10 90 10 95 5 95 5 100 5 105 0 105 0 115 5 115 5 120 10 120 10 125 15 125 20 125 20 130 20 135 20 140 20 145 20 150 20 165 15 165 15 170 15 175 20 175 20 180 20 185 20 195 20 200 20 240 20 245 15 245 15 250 15 255 20 255 20 310 20 315 55 315 60 315 70 315 75 315 80 315 85 315 95 315 100 315 110 315 115 315 125 315 130 315 135 315 140 315 150 315 155 315 210 315 215 315 280 315 285 315 295 315 295 310 295 150 295 145 295 140 295 135 295 130 295 125 300 125 305 125 305 120 310 120 310 115 315 115 315 105z" fill="#59007A"/></g><g id="change2_1"><path d="M295 5L295 0 20 0 20 5 15 5 15 45 20 45 20 50 295 50 295 45 300 45 300 5z" fill="#7A37E6"/></g><g id="change3_5"><path d="M300 50L295 50 290 50 25 50 20 50 15 50 15 60 20 60 20 70 295 70 295 60 300 60z" fill="#FF28AD"/></g><g id="change2_2"><path d="M20 120H295V315H20z" fill="#7A37E6"/></g><g fill="#59007A" id="change1_5"><path d="M215 140H280V145H215z"/><path d="M280 145L280 165 215 165 215 145 210 145 210 315 215 315 215 170 280 170 280 315 285 315 285 145z"/></g><g id="change4_7"><path d="M215 145H280V165H215z" fill="#55E0BE"/></g><g id="change5_1"><path d="M220 150H275V160H220z" fill="#FF79CE"/></g><g id="change4_8"><path d="M215 170H280V315H215z" fill="#55E0BE"/></g><g id="change1_8"><path d="M220 175H275V240H220z" fill="#59007A"/></g><g id="change1_9"><path d="M20 120H295V135H20z" fill="#59007A" opacity=".25"/></g><g id="change1_10"><path d="M20 120H295V140H20z" fill="#59007A" opacity=".25"/></g><g id="change1_11"><path d="M20 120H295V130H20z" fill="#59007A"/></g><g id="change3_6"><path d="M15 165H195V170H15z" fill="#FF28AD"/></g><g id="change5_2"><path d="M15 170H190V175H15z" fill="#FF79CE"/></g><g id="change3_7"><path d="M15 245H195V250H15z" fill="#FF28AD"/></g><g id="change5_3"><path d="M15 250H195V255H15z" fill="#FF79CE"/></g><g id="change3_8"><path d="M190 170H195V250H190z" fill="#FF28AD"/></g><g id="change5_4"><path d="M225 180H270V235H225z" fill="#FF79CE"/></g><g id="change5_5"><path d="M220 250H275V305H220z" fill="#FF79CE"/></g><g fill="#59007A" id="change1_6"><path d="M270,250h-5h-5h-25h-5h-5h-5v5v45v5h10h5h25h5h10v-5v-45v-5H270z M260,255v5h-25v-5H260z M260,290h-25v-25 h25V290z M265,265h5v25h-5V265z M230,290h-5v-25h5V290z M230,255v5h-5v-5H230z M225,300v-5h5v5H225z M235,300v-5h25v5H235z M265,300v-5h5v5H265z M270,260h-5v-5h5V260z"/><path d="M245,285h5h5v-10v-5h-10h-5v10v5H245z M245,275h5v5h-5V275z"/></g><g id="change3_9"><path d="M235 200H260V215H235z" fill="#FF28AD"/></g><g id="change3_10"><path d="M260 240H275V245H260z" fill="#FF28AD"/></g><g id="change4_9"><path d="M190,180v-5h-50h-5H75h-5H25h-5v5v60v5h5h45h5h60h5h50v-5h-55v-60H190z M25,240v-60h50v60H25z M130,240H80 v-60h50V240z" fill="#55E0BE"/></g><g id="change4_10"><path d="M185 175H190V245H185z" fill="#55E0BE"/></g><g id="change5_6"><path d="M135 180H185V240H135z" fill="#FF79CE"/></g><g id="change5_7"><path d="M25 180H75V240H25z" fill="#FF79CE"/></g><g fill="#55E0BE" id="change4_2"><path d="M30 185H40V195H30z"/><path d="M45 185H55V195H45z"/><path d="M60 185H70V195H60z"/><path d="M60 210L60 220 70 220 70 210 70 200 60 200z"/><path d="M45 210L45 220 55 220 55 210 55 200 45 200z"/><path d="M30 210L30 220 40 220 40 210 40 200 30 200z"/><path d="M60 225H70V235H60z"/><path d="M45 225H55V235H45z"/><path d="M30 225H40V235H30z"/></g><g fill="#55E0BE" id="change4_1"><path d="M140 185H150V195H140z"/><path d="M155 185H165V195H155z"/><path d="M170 185H180V195H170z"/><path d="M170 210L170 220 180 220 180 210 180 200 170 200z"/><path d="M155 210L155 220 165 220 165 210 165 200 155 200z"/><path d="M140 210L140 220 150 220 150 210 150 200 140 200z"/><path d="M170 225H180V235H170z"/><path d="M155 225H165V235H155z"/><path d="M140 225H150V235H140z"/></g><g id="change1_12"><path d="M80 180H130V240H80z" fill="#59007A"/></g><g id="change1_13"><path d="M20 175H190V185H20z" fill="#59007A" opacity=".5"/></g><g id="change5_8"><path d="M80 230L80 235 80 240 85 240 85 245 95 245 95 240 100 240 100 235 100 230z" fill="#FF79CE"/></g><g id="change5_9"><path d="M110 230L110 235 110 240 115 240 115 245 125 245 125 240 130 240 130 235 130 230z" fill="#FF79CE"/></g><g id="change1_14"><path d="M80 235H85V240H80z" fill="#59007A" opacity=".25"/></g><g id="change1_15"><path d="M85 240H95V245H85z" fill="#59007A" opacity=".25"/></g><g id="change1_16"><path d="M115 240H125V245H115z" fill="#59007A" opacity=".25"/></g><g id="change1_17"><path d="M95 235H100V240H95z" fill="#59007A" opacity=".25"/></g><g id="change1_18"><path d="M110 235H115V240H110z" fill="#59007A" opacity=".25"/></g><g id="change1_19"><path d="M125 235H130V240H125z" fill="#59007A" opacity=".25"/></g><g id="change3_11"><path d="M85 220H90V225H85z" fill="#FF28AD"/></g><g id="change3_12"><path d="M90 215H95V220H90z" fill="#FF28AD"/></g><g id="change3_13"><path d="M85 210H90V215H85z" fill="#FF28AD"/></g><g id="change3_14"><path d="M90 205H95V210H90z" fill="#FF28AD"/></g><g id="change3_15"><path d="M115 220H120V225H115z" fill="#FF28AD"/></g><g id="change3_16"><path d="M120 215H125V220H120z" fill="#FF28AD"/></g><g id="change3_17"><path d="M115 210H120V215H115z" fill="#FF28AD"/></g><g id="change3_18"><path d="M120 205H125V210H120z" fill="#FF28AD"/></g><g id="change1_20"><path d="M20 310H295V315H20z" fill="#59007A" opacity=".25"/></g><g><g id="change4_3"><path d="M70 275H75V315H70z" fill="#55E0BE"/></g><g id="change1_1"><path d="M70 275H75V315H70z" fill="#59007A" opacity=".5"/></g><g id="change3_1"><path d="M55 270H85V275H55z" fill="#FF28AD"/></g><g id="change3_2"><path d="M85 270H100V275H85z" fill="#FF28AD"/></g><g id="change1_2"><path d="M85 270H100V275H85z" fill="#59007A" opacity=".5"/></g><g id="change4_4"><path d="M95 275L95 300 85 300 85 275 80 275 80 300 60 300 60 275 55 275 55 315 60 315 60 305 80 305 80 315 85 315 85 305 95 305 95 315 100 315 100 275z" fill="#55E0BE"/></g><g id="change4_5"><path d="M125 275H130V315H125z" fill="#55E0BE"/></g><g id="change1_3"><path d="M125 275H130V315H125z" fill="#59007A" opacity=".5"/></g><g id="change3_3"><path d="M110 270H140V275H110z" fill="#FF28AD"/></g><g id="change3_4"><path d="M140 270H155V275H140z" fill="#FF28AD"/></g><g id="change1_4"><path d="M140 270H155V275H140z" fill="#59007A" opacity=".5"/></g><g id="change4_6"><path d="M150 275L150 300 140 300 140 275 135 275 135 300 115 300 115 275 110 275 110 315 115 315 115 305 135 305 135 315 140 315 140 305 150 305 150 315 155 315 155 275z" fill="#55E0BE"/></g></g><g id="change4_11"><path d="M310 105L310 100 310 95 305 95 305 90 305 85 300 85 300 75 295 75 295 65 290 65 25 65 20 65 20 75 15 75 15 85 10 85 10 90 10 95 5 95 5 100 5 105 0 105 0 115 5 115 5 120 10 120 10 125 15 125 25 125 290 125 300 125 305 125 305 120 310 120 310 115 315 115 315 105z" fill="#55E0BE"/></g><g id="change1_21"><path d="M25 155H40V160H25z" fill="#59007A"/></g><g id="change1_22"><path d="M35 150H50V155H35z" fill="#59007A"/></g><g id="change1_23"><path d="M80 150H95V155H80z" fill="#59007A"/></g><g id="change1_24"><path d="M30 285H45V290H30z" fill="#59007A"/></g><g id="change1_25"><path d="M180 270H195V275H180z" fill="#59007A"/></g><g id="change1_26"><path d="M180 290H195V295H180z" fill="#59007A"/></g><g id="change1_27"><path d="M170 285H185V290H170z" fill="#59007A"/></g><g id="change5_10"><path d="M25 65H30V75H25z" fill="#FF79CE"/></g><g id="change5_11"><path d="M20 75H25V85H20z" fill="#FF79CE"/></g><g id="change5_12"><path d="M15 85H20V95H15z" fill="#FF79CE"/></g><g id="change5_13"><path d="M10 95H15V105H10z" fill="#FF79CE"/></g><g id="change5_14"><path d="M5 105H10V115H5z" fill="#FF79CE"/></g><g id="change5_15"><path d="M10 115H15V120H10z" fill="#FF79CE"/></g><g id="change5_16"><path d="M15 120H20V125H15z" fill="#FF79CE"/></g><g id="change5_17"><path d="M45 65L45 75 40 75 40 85 35 85 35 95 30 95 30 105 25 105 25 115 35 115 35 105 40 105 40 95 45 95 45 85 50 85 50 75 55 75 55 65z" fill="#FF79CE"/></g><g id="change5_18"><path d="M30 115H40V120H30z" fill="#FF79CE"/></g><g id="change5_19"><path d="M35 120H45V125H35z" fill="#FF79CE"/></g><g id="change5_20"><path d="M70 65L70 75 65 75 65 85 60 85 60 95 55 95 55 105 50 105 50 115 60 115 60 105 65 105 65 95 70 95 70 85 75 85 75 75 80 75 80 65z" fill="#FF79CE"/></g><g id="change5_21"><path d="M55 115H65V120H55z" fill="#FF79CE"/></g><g id="change5_22"><path d="M60 120H70V125H60z" fill="#FF79CE"/></g><g id="change5_23"><path d="M130 65L130 75 130 85 125 85 125 95 125 105 120 105 120 115 130 115 130 105 135 105 135 95 135 85 140 85 140 75 140 65z" fill="#FF79CE"/></g><g id="change5_24"><path d="M125 115H135V120H125z" fill="#FF79CE"/></g><g id="change5_25"><path d="M130 120H140V125H130z" fill="#FF79CE"/></g><g id="change5_26"><path d="M100 65L100 75 95 75 95 85 90 85 90 95 90 105 85 105 85 115 95 115 95 105 100 105 100 95 100 85 105 85 105 75 110 75 110 65z" fill="#FF79CE"/></g><g id="change5_27"><path d="M90 115H100V120H90z" fill="#FF79CE"/></g><g id="change5_28"><path d="M95 120H105V125H95z" fill="#FF79CE"/></g><g id="change5_29"><path d="M160 80L160 65 155 65 155 80 150 80 150 120 155 120 155 125 160 125 160 120 165 120 165 80z" fill="#FF79CE"/></g><g id="change5_30"><path d="M285 65H290V75H285z" fill="#FF79CE"/></g><g id="change5_31"><path d="M290 75H295V85H290z" fill="#FF79CE"/></g><g id="change5_32"><path d="M295 85H300V95H295z" fill="#FF79CE"/></g><g id="change5_33"><path d="M300 95H305V105H300z" fill="#FF79CE"/></g><g id="change5_34"><path d="M305 105H310V115H305z" fill="#FF79CE"/></g><g id="change5_35"><path d="M300 115H305V120H300z" fill="#FF79CE"/></g><g id="change5_36"><path d="M295 120H300V125H295z" fill="#FF79CE"/></g><g id="change5_37"><path d="M285 105L285 95 280 95 280 85 275 85 275 75 270 75 270 65 260 65 260 75 265 75 265 85 270 85 270 95 275 95 275 105 280 105 280 115 290 115 290 105z" fill="#FF79CE"/></g><g id="change5_38"><path d="M275 115H285V120H275z" fill="#FF79CE"/></g><g id="change5_39"><path d="M270 120H280V125H270z" fill="#FF79CE"/></g><g id="change5_40"><path d="M260 105L260 95 255 95 255 85 250 85 250 75 245 75 245 65 235 65 235 75 240 75 240 85 245 85 245 95 250 95 250 105 255 105 255 115 265 115 265 105z" fill="#FF79CE"/></g><g id="change5_41"><path d="M250 115H260V120H250z" fill="#FF79CE"/></g><g id="change5_42"><path d="M245 120H255V125H245z" fill="#FF79CE"/></g><g id="change5_43"><path d="M190 105L190 95 190 85 185 85 185 75 185 65 175 65 175 75 175 85 180 85 180 95 180 105 185 105 185 115 195 115 195 105z" fill="#FF79CE"/></g><g id="change5_44"><path d="M180 115H190V120H180z" fill="#FF79CE"/></g><g id="change5_45"><path d="M175 120H185V125H175z" fill="#FF79CE"/></g><g id="change5_46"><path d="M225 105L225 95 225 85 220 85 220 75 215 75 215 65 205 65 205 75 210 75 210 85 215 85 215 95 215 105 220 105 220 115 230 115 230 105z" fill="#FF79CE"/></g><g id="change5_47"><path d="M215 115H225V120H215z" fill="#FF79CE"/></g><g id="change5_48"><path d="M210 120H220V125H210z" fill="#FF79CE"/></g><g id="change1_28"><path d="M10 120H305V125H10z" fill="#59007A" opacity=".5"/></g><g id="change1_29"><path d="M10 100H15V105H10z" fill="#59007A" opacity=".25"/></g><g id="change1_30"><path d="M15 90H20V95H15z" fill="#59007A" opacity=".25"/></g><g id="change1_31"><path d="M20 80H25V85H20z" fill="#59007A" opacity=".25"/></g><g id="change1_32"><path d="M25 70H30V75H25z" fill="#59007A" opacity=".25"/></g><g id="change1_33"><path d="M35 90H45V95H35z" fill="#59007A" opacity=".25"/></g><g id="change1_34"><path d="M40 80H50V85H40z" fill="#59007A" opacity=".25"/></g><g id="change1_35"><path d="M45 70H55V75H45z" fill="#59007A" opacity=".25"/></g><g id="change1_36"><path d="M60 90H70V95H60z" fill="#59007A" opacity=".25"/></g><g id="change1_37"><path d="M65 80H75V85H65z" fill="#59007A" opacity=".25"/></g><g id="change1_38"><path d="M70 70H80V75H70z" fill="#59007A" opacity=".25"/></g><g id="change1_39"><path d="M95 80H105V85H95z" fill="#59007A" opacity=".25"/></g><g id="change1_40"><path d="M130 80H140V85H130z" fill="#59007A" opacity=".25"/></g><g id="change1_41"><path d="M210 80H220V85H210z" fill="#59007A" opacity=".25"/></g><g id="change1_42"><path d="M205 70H215V75H205z" fill="#59007A" opacity=".25"/></g><g id="change1_43"><path d="M240 80H250V85H240z" fill="#59007A" opacity=".25"/></g><g id="change1_44"><path d="M245 90H255V95H245z" fill="#59007A" opacity=".25"/></g><g id="change1_45"><path d="M235 70H245V75H235z" fill="#59007A" opacity=".25"/></g><g id="change1_46"><path d="M265 80H275V85H265z" fill="#59007A" opacity=".25"/></g><g id="change1_47"><path d="M270 90H280V95H270z" fill="#59007A" opacity=".25"/></g><g id="change1_48"><path d="M260 70H270V75H260z" fill="#59007A" opacity=".25"/></g><g id="change1_49"><path d="M290 80H295V85H290z" fill="#59007A" opacity=".25"/></g><g id="change1_50"><path d="M295 90H300V95H295z" fill="#59007A" opacity=".25"/></g><g id="change1_51"><path d="M285 70H290V75H285z" fill="#59007A" opacity=".25"/></g><g id="change1_52"><path d="M100 70H110V75H100z" fill="#59007A" opacity=".25"/></g><g id="change1_53"><path d="M175 80H185V85H175z" fill="#59007A" opacity=".25"/></g><g id="change1_54"><path d="M30 100H40V105H30z" fill="#59007A" opacity=".25"/></g><g id="change1_55"><path d="M55 100H65V105H55z" fill="#59007A" opacity=".25"/></g><g id="change1_56"><path d="M90 100H100V105H90z" fill="#59007A" opacity=".25"/></g><g id="change1_57"><path d="M125 100H135V105H125z" fill="#59007A" opacity=".25"/></g><g id="change1_58"><path d="M150 100H165V105H150z" fill="#59007A" opacity=".25"/></g><g id="change1_59"><path d="M185 110H195V115H185z" fill="#59007A" opacity=".25"/></g><g id="change1_60"><path d="M180 100H190V105H180z" fill="#59007A" opacity=".25"/></g><g id="change1_61"><path d="M215 100H225V105H215z" fill="#59007A" opacity=".25"/></g><g id="change1_62"><path d="M250 100H260V105H250z" fill="#59007A" opacity=".25"/></g><g id="change1_63"><path d="M290 115L290 110 280 110 280 115 265 115 265 110 255 110 255 115 230 115 230 110 220 110 220 115 165 115 165 110 150 110 150 115 130 115 130 110 120 110 120 115 95 115 95 110 85 110 85 115 60 115 60 110 50 110 50 115 35 115 35 110 25 110 25 115 10 115 10 110 5 110 5 115 5 120 310 120 310 115z" fill="#59007A" opacity=".25"/></g><g id="change1_64"><path d="M275 100H285V105H275z" fill="#59007A" opacity=".25"/></g><g id="change1_65"><path d="M305 110H310V115H305z" fill="#59007A" opacity=".25"/></g><g id="change1_66"><path d="M300 100H305V105H300z" fill="#59007A" opacity=".25"/></g><g id="change1_67"><path d="M20 60H295V65H20z" fill="#59007A"/></g><g id="change5_49"><path d="M20 55H295V60H20z" fill="#FF79CE"/></g><g id="change1_68"><path d="M25 130H30V135H25z" fill="#59007A" opacity=".5"/></g><g id="change1_69"><path d="M35 130H40V135H35z" fill="#59007A" opacity=".5"/></g><g id="change1_70"><path d="M45 130H50V135H45z" fill="#59007A" opacity=".5"/></g><g id="change1_71"><path d="M55 130H60V135H55z" fill="#59007A" opacity=".5"/></g><g id="change1_72"><path d="M65 130H70V135H65z" fill="#59007A" opacity=".5"/></g><g id="change1_73"><path d="M75 130H80V135H75z" fill="#59007A" opacity=".5"/></g><g id="change1_74"><path d="M85 130H90V135H85z" fill="#59007A" opacity=".5"/></g><g id="change1_75"><path d="M95 130H100V135H95z" fill="#59007A" opacity=".5"/></g><g id="change1_76"><path d="M105 130H110V135H105z" fill="#59007A" opacity=".5"/></g><g id="change1_77"><path d="M115 130H120V135H115z" fill="#59007A" opacity=".5"/></g><g id="change1_78"><path d="M125 130H130V135H125z" fill="#59007A" opacity=".5"/></g><g id="change1_79"><path d="M135 130H140V135H135z" fill="#59007A" opacity=".5"/></g><g id="change1_80"><path d="M145 130H150V135H145z" fill="#59007A" opacity=".5"/></g><g id="change1_81"><path d="M155 130H160V135H155z" fill="#59007A" opacity=".5"/></g><g id="change1_82"><path d="M165 130H170V135H165z" fill="#59007A" opacity=".5"/></g><g id="change1_83"><path d="M175 130H180V135H175z" fill="#59007A" opacity=".5"/></g><g id="change1_84"><path d="M185 130H190V135H185z" fill="#59007A" opacity=".5"/></g><g id="change1_85"><path d="M195 130H200V135H195z" fill="#59007A" opacity=".5"/></g><g id="change1_86"><path d="M205 130H210V135H205z" fill="#59007A" opacity=".5"/></g><g id="change1_87"><path d="M215 130H220V135H215z" fill="#59007A" opacity=".5"/></g><g id="change1_88"><path d="M225 130H230V135H225z" fill="#59007A" opacity=".5"/></g><g id="change1_89"><path d="M235 130H240V135H235z" fill="#59007A" opacity=".5"/></g><g id="change1_90"><path d="M245 130H250V135H245z" fill="#59007A" opacity=".5"/></g><g id="change1_91"><path d="M255 130H260V135H255z" fill="#59007A" opacity=".5"/></g><g id="change1_92"><path d="M265 130H270V135H265z" fill="#59007A" opacity=".5"/></g><g id="change1_93"><path d="M275 130H280V135H275z" fill="#59007A" opacity=".5"/></g><g id="change1_94"><path d="M285 130H290V135H285z" fill="#59007A" opacity=".5"/></g><g id="change1_95"><path d="M20 135H25V140H20z" fill="#59007A" opacity=".5"/></g><g id="change1_96"><path d="M30 135H35V140H30z" fill="#59007A" opacity=".5"/></g><g id="change1_97"><path d="M40 135H45V140H40z" fill="#59007A" opacity=".5"/></g><g id="change1_98"><path d="M50 135H55V140H50z" fill="#59007A" opacity=".5"/></g><g id="change1_99"><path d="M60 135H65V140H60z" fill="#59007A" opacity=".5"/></g><g id="change1_100"><path d="M70 135H75V140H70z" fill="#59007A" opacity=".5"/></g><g id="change1_101"><path d="M80 135H85V140H80z" fill="#59007A" opacity=".5"/></g><g id="change1_102"><path d="M90 135H95V140H90z" fill="#59007A" opacity=".5"/></g><g id="change1_103"><path d="M100 135H105V140H100z" fill="#59007A" opacity=".5"/></g><g id="change1_104"><path d="M110 135H115V140H110z" fill="#59007A" opacity=".5"/></g><g id="change1_105"><path d="M120 135H125V140H120z" fill="#59007A" opacity=".5"/></g><g id="change1_106"><path d="M130 135H135V140H130z" fill="#59007A" opacity=".5"/></g><g id="change1_107"><path d="M140 135H145V140H140z" fill="#59007A" opacity=".5"/></g><g id="change1_108"><path d="M150 135H155V140H150z" fill="#59007A" opacity=".5"/></g><g id="change1_109"><path d="M160 135H165V140H160z" fill="#59007A" opacity=".5"/></g><g id="change1_110"><path d="M170 135H175V140H170z" fill="#59007A" opacity=".5"/></g><g id="change1_111"><path d="M180 135H185V140H180z" fill="#59007A" opacity=".5"/></g><g id="change1_112"><path d="M190 135H195V140H190z" fill="#59007A" opacity=".5"/></g><g id="change1_113"><path d="M200 135H205V140H200z" fill="#59007A" opacity=".5"/></g><g id="change1_114"><path d="M210 135H215V140H210z" fill="#59007A" opacity=".5"/></g><g id="change1_115"><path d="M220 135H225V140H220z" fill="#59007A" opacity=".5"/></g><g id="change1_116"><path d="M230 135H235V140H230z" fill="#59007A" opacity=".5"/></g><g id="change1_117"><path d="M240 135H245V140H240z" fill="#59007A" opacity=".5"/></g><g id="change1_118"><path d="M250 135H255V140H250z" fill="#59007A" opacity=".5"/></g><g id="change1_119"><path d="M260 135H265V140H260z" fill="#59007A" opacity=".5"/></g><g id="change1_120"><path d="M270 135H275V140H270z" fill="#59007A" opacity=".5"/></g><g id="change1_121"><path d="M280 135H285V140H280z" fill="#59007A" opacity=".5"/></g><g id="change1_122"><path d="M290 135H295V140H290z" fill="#59007A" opacity=".5"/></g><g id="change1_123"><path d="M20 145H25V150H20z" fill="#59007A" opacity=".2"/></g><g id="change1_124"><path d="M30 145H35V150H30z" fill="#59007A" opacity=".2"/></g><g id="change1_125"><path d="M40 145H45V150H40z" fill="#59007A" opacity=".2"/></g><g id="change1_126"><path d="M50 145H55V150H50z" fill="#59007A" opacity=".2"/></g><g id="change1_127"><path d="M60 145H65V150H60z" fill="#59007A" opacity=".2"/></g><g id="change1_128"><path d="M70 145H75V150H70z" fill="#59007A" opacity=".2"/></g><g id="change1_129"><path d="M80 145H85V150H80z" fill="#59007A" opacity=".2"/></g><g id="change1_130"><path d="M90 145H95V150H90z" fill="#59007A" opacity=".2"/></g><g id="change1_131"><path d="M100 145H105V150H100z" fill="#59007A" opacity=".2"/></g><g id="change1_132"><path d="M110 145H115V150H110z" fill="#59007A" opacity=".2"/></g><g id="change1_133"><path d="M120 145H125V150H120z" fill="#59007A" opacity=".2"/></g><g id="change1_134"><path d="M130 145H135V150H130z" fill="#59007A" opacity=".2"/></g><g id="change1_135"><path d="M140 145H145V150H140z" fill="#59007A" opacity=".2"/></g><g id="change1_136"><path d="M150 145H155V150H150z" fill="#59007A" opacity=".2"/></g><g id="change1_137"><path d="M160 145H165V150H160z" fill="#59007A" opacity=".2"/></g><g id="change1_138"><path d="M170 145H175V150H170z" fill="#59007A" opacity=".2"/></g><g id="change1_139"><path d="M180 145H185V150H180z" fill="#59007A" opacity=".2"/></g><g id="change1_140"><path d="M190 145H195V150H190z" fill="#59007A" opacity=".2"/></g><g id="change1_141"><path d="M200 145H205V150H200z" fill="#59007A" opacity=".2"/></g><g id="change1_142"><path d="M210 145H215V150H210z" fill="#59007A" opacity=".2"/></g><g id="change1_143"><path d="M220 145H225V150H220z" fill="#59007A" opacity=".2"/></g><g id="change1_144"><path d="M230 145H235V150H230z" fill="#59007A" opacity=".2"/></g><g id="change1_145"><path d="M240 145H245V150H240z" fill="#59007A" opacity=".2"/></g><g id="change1_146"><path d="M250 145H255V150H250z" fill="#59007A" opacity=".2"/></g><g id="change1_147"><path d="M260 145H265V150H260z" fill="#59007A" opacity=".2"/></g><g id="change1_148"><path d="M270 145H275V150H270z" fill="#59007A" opacity=".2"/></g><g id="change1_149"><path d="M290 145H295V150H290z" fill="#59007A" opacity=".2"/></g><g id="change1_150"><path d="M280 145H285V150H280z" fill="#59007A" opacity=".2"/></g><g id="change1_151"><path d="M20 45H295V50H20z" fill="#59007A"/></g><g id="change5_50"><path d="M295 50H300V60H295z" fill="#FF79CE"/></g><g id="change5_51"><path d="M15 50H20V60H15z" fill="#FF79CE"/></g><g id="change2_3"><path d="M15 5H300V45H15z" fill="#7A37E6"/></g><g id="change2_4"><path d="M20 0H295V10H20z" fill="#7A37E6"/></g><g id="change2_5"><path d="M20 25H295V45H20z" fill="#7A37E6"/></g><g id="change4_12"><path d="M20,5v5v30v5h5h265h5v-5V10V5H20z M290,40H25V10h265V40z" fill="#55E0BE"/></g><g id="change5_52"><path d="M35 15H45V20H35z" fill="#FF79CE"/></g><g id="change5_53"><path d="M35 25H45V30H35z" fill="#FF79CE"/></g><g id="change5_54"><path d="M45 30H50V35H45z" fill="#FF79CE"/></g><g id="change5_55"><path d="M55 30H60V35H55z" fill="#FF79CE"/></g><g id="change5_56"><path d="M60 15H65V30H60z" fill="#FF79CE"/></g><g id="change5_57"><path d="M70 15H75V35H70z" fill="#FF79CE"/></g><g id="change5_58"><path d="M80 25H85V35H80z" fill="#FF79CE"/></g><g id="change5_59"><path d="M85 15H90V25H85z" fill="#FF79CE"/></g><g id="change5_60"><path d="M90 25L90 30 95 30 95 35 100 35 100 30 100 25z" fill="#FF79CE"/></g><g id="change5_61"><path d="M105 15H110V35H105z" fill="#FF79CE"/></g><g id="change5_62"><path d="M115 15H120V20H115z" fill="#FF79CE"/></g><g id="change5_63"><path d="M120 20H125V30H120z" fill="#FF79CE"/></g><g id="change5_64"><path d="M125 30H130V35H125z" fill="#FF79CE"/></g><g id="change5_65"><path d="M130 15H135V30H130z" fill="#FF79CE"/></g><g id="change5_66"><path d="M180 15H215V20H180z" fill="#FF79CE"/></g><g id="change5_67"><path d="M220 15H230V20H220z" fill="#FF79CE"/></g><g id="change5_68"><path d="M235 15H280V20H235z" fill="#FF79CE"/></g><g id="change5_69"><path d="M200 30H215V35H200z" fill="#FF79CE"/></g><g id="change5_70"><path d="M180 30H195V35H180z" fill="#FF79CE"/></g><g id="change5_71"><path d="M150 15H155V20H150z" fill="#FF79CE"/></g><g id="change5_72"><path d="M145 30L145 25 150 25 150 20 145 20 145 15 140 15 140 35 145 35 155 35 155 30z" fill="#FF79CE"/></g><g id="change5_73"><path d="M160 15H165V35H160z" fill="#FF79CE"/></g><g id="change3_19"><path d="M20 0H295V5H20z" fill="#FF28AD"/></g><g id="change3_20"><path d="M295 5H300V10H295z" fill="#FF28AD"/></g><g id="change1_152"><path d="M15 40H20V45H15z" fill="#59007A"/></g><g id="change1_153"><path d="M20 175L20 195 20 200 25 200 25 195 30 195 30 200 35 200 35 195 40 195 40 200 45 200 45 195 50 195 50 200 55 200 55 195 60 195 60 200 65 200 65 195 70 195 70 200 75 200 75 195 130 195 130 200 135 200 135 195 140 195 140 200 145 200 145 195 150 195 150 200 155 200 155 195 160 195 160 200 165 200 165 195 170 195 170 200 175 200 175 195 180 195 180 200 185 200 185 195 190 195 190 175z" fill="#59007A" opacity=".25"/></g></g></svg>