<?xml version="1.0" encoding="UTF-8"?><svg xmlns="http://www.w3.org/2000/svg" xmlns:xlink="http://www.w3.org/1999/xlink" height="90.0" preserveAspectRatio="xMidYMid meet" version="1.0" viewBox="0.0 0.0 250.0 90.0" width="250.0" zoomAndPan="magnify"><g id="change1_99"><path d="M245 65L245 55 240 55 240 50 235 50 235 45 230 45 230 40 220 40 220 35 210 35 210 30 165 30 160 30 160 25 155 25 155 20 150 20 150 15 145 15 145 10 140 10 140 5 135 5 135 0 105 0 100 0 60 0 60 5 55 5 55 10 50 10 50 15 45 15 45 20 40 20 40 25 35 25 35 30 15 30 15 35 10 35 10 40 5 40 5 45 0 45 0 65 0 70 5 70 5 75 10 75 10 80 15 80 20 80 25 80 30 80 35 80 35 85 40 85 40 90 55 90 55 85 60 85 60 80 65 80 70 80 75 80 80 80 85 80 90 80 95 80 100 80 105 80 110 80 115 80 120 80 125 80 130 80 135 80 140 80 145 80 150 80 155 80 160 80 165 80 170 80 175 80 180 80 185 80 190 80 190 85 195 85 195 90 210 90 210 85 215 85 215 80 220 80 225 80 230 80 235 80 240 80 245 80 245 75 250 75 250 70 250 65z" fill="#2E1B5B"/></g><g><g id="change2_1"><path d="M165 35L35 35 60 5 135 5z" fill="#2F3B8E"/></g><g fill="#FF0068" id="change3_1"><path d="M245,65V55h-5v-5h-5v-5h-5v-5h-10v-5h-10v-5h-50v-5h-5v5h-5v-5h-5v5h-40V5h30V0h-30h-5H60v5h-5v5h-5v5h-5 v5h-5v5h-5v5H15v5h-5v5H5v5H0v25h5v5h5v5h220h5h5h5v-5h5V65H245z M50,25v-5h5v-5h5v-5h5V5h35v25H45v-5H50z"/><path d="M135 5H140V10H135z"/><path d="M140 10H145V15H140z"/><path d="M145 15H150V20H145z"/><path d="M150 20H155V25H150z"/><path d="M135 20H145V25H135z"/></g><g id="change4_1"><path d="M190 60H215V85H190z" fill="#A509A8"/></g><g id="change2_2"><path d="M215,65v-5h-5v-5h-15v5h-5v5h-5v15h5v5h5v5h15v-5h5v-5h5V65H215z M200,80v-5h-5v-5h5v-5h5v5h5v5h-5v5H200z" fill="#2F3B8E"/></g><g id="change1_1"><path d="M200 70H205V75H200z" fill="#2E1B5B"/></g><g id="change1_2"><path d="M195 55H210V60H195z" fill="#2E1B5B" opacity=".5"/></g><g id="change1_3"><path d="M190 60H195V65H190z" fill="#2E1B5B" opacity=".5"/></g><g id="change1_4"><path d="M185 65H190V80H185z" fill="#2E1B5B" opacity=".5"/></g><g id="change1_5"><path d="M210 60H215V65H210z" fill="#2E1B5B" opacity=".5"/></g><g id="change1_6"><path d="M215 65H220V80H215z" fill="#2E1B5B" opacity=".5"/></g><g id="change1_7"><path d="M190 50H215V55H190z" fill="#2E1B5B"/></g><g id="change1_8"><path d="M210 55H220V60H210z" fill="#2E1B5B"/></g><g id="change1_9"><path d="M215 60H225V65H215z" fill="#2E1B5B"/></g><g id="change1_10"><path d="M220 65H225V80H220z" fill="#2E1B5B"/></g><g id="change1_11"><path d="M185 55H195V60H185z" fill="#2E1B5B"/></g><g id="change1_12"><path d="M180 60H190V65H180z" fill="#2E1B5B"/></g><g id="change1_13"><path d="M180 65H185V80H180z" fill="#2E1B5B"/></g><g id="change4_2"><path d="M35 60H60V85H35z" fill="#A509A8"/></g><g id="change2_3"><path d="M60,65v-5h-5v-5H40v5h-5v5h-5v15h5v5h5v5h15v-5h5v-5h5V65H60z M45,80v-5h-5v-5h5v-5h5v5h5v5h-5v5H45z" fill="#2F3B8E"/></g><g id="change1_14"><path d="M45 70H50V75H45z" fill="#2E1B5B"/></g><g id="change1_15"><path d="M40 55H55V60H40z" fill="#2E1B5B" opacity=".5"/></g><g id="change1_16"><path d="M35 60H40V65H35z" fill="#2E1B5B" opacity=".5"/></g><g id="change1_17"><path d="M30 65H35V80H30z" fill="#2E1B5B" opacity=".5"/></g><g id="change1_18"><path d="M55 60H60V65H55z" fill="#2E1B5B" opacity=".5"/></g><g id="change1_19"><path d="M60 65H65V80H60z" fill="#2E1B5B" opacity=".5"/></g><g id="change1_20"><path d="M35 50H60V55H35z" fill="#2E1B5B"/></g><g id="change1_21"><path d="M55 55H65V60H55z" fill="#2E1B5B"/></g><g id="change1_22"><path d="M60 60H70V65H60z" fill="#2E1B5B"/></g><g id="change1_23"><path d="M65 65H70V80H65z" fill="#2E1B5B"/></g><g id="change1_24"><path d="M30 55H40V60H30z" fill="#2E1B5B"/></g><g id="change1_25"><path d="M25 60H35V65H25z" fill="#2E1B5B"/></g><g id="change1_26"><path d="M25 65H30V80H25z" fill="#2E1B5B"/></g><g id="change4_3"><path d="M50 25H55V30H50z" fill="#A509A8"/></g><g id="change4_4"><path d="M55 20H60V25H55z" fill="#A509A8"/></g><g id="change4_5"><path d="M60 15H65V20H60z" fill="#A509A8"/></g><g id="change4_6"><path d="M65 10H70V15H65z" fill="#A509A8"/></g><g id="change4_7"><path d="M70 5H75V10H70z" fill="#A509A8"/></g><g id="change4_8"><path d="M65 25H70V30H65z" fill="#A509A8"/></g><g id="change4_9"><path d="M70 20H75V25H70z" fill="#A509A8"/></g><g id="change4_10"><path d="M75 15H80V20H75z" fill="#A509A8"/></g><g id="change4_11"><path d="M80 10H85V15H80z" fill="#A509A8"/></g><g id="change4_12"><path d="M85 5H90V10H85z" fill="#A509A8"/></g><g id="change4_13"><path d="M105 25H110V30H105z" fill="#A509A8"/></g><g id="change4_14"><path d="M110 20H115V25H110z" fill="#A509A8"/></g><g id="change4_15"><path d="M115 15H120V20H115z" fill="#A509A8"/></g><g id="change4_16"><path d="M120 10H125V15H120z" fill="#A509A8"/></g><g id="change4_17"><path d="M125 5H130V10H125z" fill="#A509A8"/></g><g id="change4_18"><path d="M115 25H120V30H115z" fill="#A509A8"/></g><g id="change4_19"><path d="M120 20H125V25H120z" fill="#A509A8"/></g><g id="change4_20"><path d="M125 15H130V20H125z" fill="#A509A8"/></g><g id="change4_21"><path d="M130 10H135V15H130z" fill="#A509A8"/></g><g id="change5_1"><path d="M235 50L235 45 230 45 230 40 215 40 215 45 220 45 220 50 225 50 225 55 240 55 240 50z" fill="#FFD100"/></g><g id="change5_2"><path d="M10 35L10 40 5 40 5 45 20 45 20 40 25 40 25 35z" fill="#FFD100"/></g><g fill="#2E1B5B" id="change1_100" opacity=".5"><path d="M165 30L160 30 160 65 105 65 105 30 100 30 100 65 70 65 70 70 100 70 100 80 105 80 105 70 160 70 160 80 165 80 165 70 180 70 180 65 165 65z"/><path d="M0 65H25V70H0z"/><path d="M50 30H55V45H50z"/><path d="M55 45H60V50H55z"/><path d="M60 35H70V40H60z"/><path d="M110 35H120V40H110z"/><path d="M225 65H250V70H225z"/></g><g fill="#2E1B5B" id="change1_101" opacity=".7"><path d="M70 75H180V80H70z"/><path d="M225 75H245V80H225z"/><path d="M10 75H25V80H10z"/></g><g id="change1_27"><path d="M70 60H165V80H70z" fill="#2E1B5B" opacity=".2"/></g><g id="change1_28"><path d="M165 60H180V80H165z" fill="#2E1B5B" opacity=".2"/></g><g fill="#2E1B5B" id="change1_98" opacity=".2"><path d="M240 65L240 60 225 60 225 80 245 80 245 75 250 75 250 65z"/><path d="M5 65L0 65 0 70 5 70 5 75 10 75 10 80 25 80 25 60 5 60z"/></g><g id="change1_29"><path d="M5 70H10V75H5z" fill="#2E1B5B" opacity=".25"/></g><g id="change1_30"><path d="M15 70H20V75H15z" fill="#2E1B5B" opacity=".25"/></g><g id="change1_31"><path d="M10 75H15V80H10z" fill="#2E1B5B" opacity=".3"/></g><g id="change1_32"><path d="M5 60H10V65H5z" fill="#2E1B5B" opacity=".2"/></g><g id="change1_33"><path d="M5 50H10V55H5z" fill="#2E1B5B" opacity=".2"/></g><g id="change1_34"><path d="M15 60H20V65H15z" fill="#2E1B5B" opacity=".2"/></g><g id="change1_35"><path d="M15 50H20V55H15z" fill="#2E1B5B" opacity=".2"/></g><g id="change1_36"><path d="M25 50H30V55H25z" fill="#2E1B5B" opacity=".2"/></g><g id="change1_37"><path d="M70 60H75V65H70z" fill="#2E1B5B" opacity=".2"/></g><g id="change1_38"><path d="M70 50H75V55H70z" fill="#2E1B5B" opacity=".2"/></g><g id="change1_39"><path d="M80 60H85V65H80z" fill="#2E1B5B" opacity=".2"/></g><g id="change1_40"><path d="M80 50H85V55H80z" fill="#2E1B5B" opacity=".2"/></g><g id="change1_41"><path d="M90 60H95V65H90z" fill="#2E1B5B" opacity=".2"/></g><g id="change1_42"><path d="M90 50H95V55H90z" fill="#2E1B5B" opacity=".2"/></g><g id="change1_43"><path d="M100 60H105V65H100z" fill="#2E1B5B" opacity=".2"/></g><g id="change1_44"><path d="M100 50H105V55H100z" fill="#2E1B5B" opacity=".2"/></g><g id="change1_45"><path d="M110 60H115V65H110z" fill="#2E1B5B" opacity=".2"/></g><g id="change1_46"><path d="M110 50H115V55H110z" fill="#2E1B5B" opacity=".2"/></g><g id="change1_47"><path d="M120 60H125V65H120z" fill="#2E1B5B" opacity=".2"/></g><g id="change1_48"><path d="M120 50H125V55H120z" fill="#2E1B5B" opacity=".2"/></g><g id="change1_49"><path d="M130 60H135V65H130z" fill="#2E1B5B" opacity=".2"/></g><g id="change1_50"><path d="M130 50H135V55H130z" fill="#2E1B5B" opacity=".2"/></g><g id="change1_51"><path d="M140 60H145V65H140z" fill="#2E1B5B" opacity=".2"/></g><g id="change1_52"><path d="M140 50H145V55H140z" fill="#2E1B5B" opacity=".2"/></g><g id="change1_53"><path d="M150 60H155V65H150z" fill="#2E1B5B" opacity=".2"/></g><g id="change1_54"><path d="M150 50H155V55H150z" fill="#2E1B5B" opacity=".2"/></g><g id="change1_55"><path d="M160 60H165V65H160z" fill="#2E1B5B" opacity=".2"/></g><g id="change1_56"><path d="M160 50H165V55H160z" fill="#2E1B5B" opacity=".2"/></g><g id="change1_57"><path d="M170 60H175V65H170z" fill="#2E1B5B" opacity=".2"/></g><g id="change1_58"><path d="M170 50H175V55H170z" fill="#2E1B5B" opacity=".2"/></g><g id="change1_59"><path d="M180 50H185V55H180z" fill="#2E1B5B" opacity=".2"/></g><g id="change1_60"><path d="M20 75H25V80H20z" fill="#2E1B5B" opacity=".3"/></g><g id="change1_61"><path d="M70 70H75V75H70z" fill="#2E1B5B" opacity=".25"/></g><g id="change1_62"><path d="M75 75H80V80H75z" fill="#2E1B5B" opacity=".25"/></g><g id="change1_63"><path d="M85 75H90V80H85z" fill="#2E1B5B" opacity=".25"/></g><g id="change1_64"><path d="M95 75H100V80H95z" fill="#2E1B5B" opacity=".25"/></g><g id="change1_65"><path d="M75 65H80V70H75z" fill="#2E1B5B" opacity=".25"/></g><g id="change1_66"><path d="M85 65H90V70H85z" fill="#2E1B5B" opacity=".25"/></g><g id="change1_67"><path d="M95 65H100V70H95z" fill="#2E1B5B" opacity=".25"/></g><g id="change1_68"><path d="M105 75H110V80H105z" fill="#2E1B5B" opacity=".25"/></g><g id="change1_69"><path d="M115 75H120V80H115z" fill="#2E1B5B" opacity=".25"/></g><g id="change1_70"><path d="M125 75H130V80H125z" fill="#2E1B5B" opacity=".25"/></g><g id="change1_71"><path d="M135 75H140V80H135z" fill="#2E1B5B" opacity=".25"/></g><g id="change1_72"><path d="M145 75H150V80H145z" fill="#2E1B5B" opacity=".25"/></g><g id="change1_73"><path d="M155 75H160V80H155z" fill="#2E1B5B" opacity=".25"/></g><g id="change1_74"><path d="M105 65H110V70H105z" fill="#2E1B5B" opacity=".25"/></g><g id="change1_75"><path d="M115 65H120V70H115z" fill="#2E1B5B" opacity=".25"/></g><g id="change1_76"><path d="M125 65H130V70H125z" fill="#2E1B5B" opacity=".25"/></g><g id="change1_77"><path d="M135 65H140V70H135z" fill="#2E1B5B" opacity=".25"/></g><g id="change1_78"><path d="M145 65H150V70H145z" fill="#2E1B5B" opacity=".25"/></g><g id="change1_79"><path d="M155 65H160V70H155z" fill="#2E1B5B" opacity=".25"/></g><g id="change1_80"><path d="M165 75H170V80H165z" fill="#2E1B5B" opacity=".25"/></g><g id="change1_81"><path d="M175 75H180V80H175z" fill="#2E1B5B" opacity=".25"/></g><g id="change1_82"><path d="M225 75H230V80H225z" fill="#2E1B5B" opacity=".25"/></g><g id="change1_83"><path d="M235 75H240V80H235z" fill="#2E1B5B" opacity=".25"/></g><g id="change1_84"><path d="M80 70H85V75H80z" fill="#2E1B5B" opacity=".25"/></g><g id="change1_85"><path d="M90 70H95V75H90z" fill="#2E1B5B" opacity=".25"/></g><g id="change1_86"><path d="M110 70H115V75H110z" fill="#2E1B5B" opacity=".25"/></g><g id="change1_87"><path d="M120 70H125V75H120z" fill="#2E1B5B" opacity=".25"/></g><g id="change1_88"><path d="M130 70H135V75H130z" fill="#2E1B5B" opacity=".25"/></g><g id="change1_89"><path d="M140 70H145V75H140z" fill="#2E1B5B" opacity=".25"/></g><g id="change1_90"><path d="M150 70H155V75H150z" fill="#2E1B5B" opacity=".25"/></g><g id="change1_91"><path d="M230 70H235V75H230z" fill="#2E1B5B" opacity=".25"/></g><g id="change1_92"><path d="M240 70H245V75H240z" fill="#2E1B5B" opacity=".25"/></g><g id="change1_93"><path d="M170 70H175V75H170z" fill="#2E1B5B" opacity=".25"/></g><g id="change1_94"><path d="M105 5H135V10H105z" fill="#2E1B5B" opacity=".7"/></g><g id="change1_95"><path d="M65 5H100V10H65z" fill="#2E1B5B" opacity=".7"/></g><g id="change1_96"><path d="M60 10H100V15H60z" fill="#2E1B5B" opacity=".5"/></g><g id="change1_97"><path d="M105 10H140V15H105z" fill="#2E1B5B" opacity=".5"/></g></g></svg>