<?xml version="1.0" encoding="UTF-8"?><svg xmlns="http://www.w3.org/2000/svg" xmlns:xlink="http://www.w3.org/1999/xlink" height="75.0" preserveAspectRatio="xMidYMid meet" version="1.0" viewBox="0.0 0.0 500.0 75.0" width="500.0" zoomAndPan="magnify"><g><g id="change1_1"><path d="M0 0H500V75H0z" fill="#877AFF"/></g><g id="change2_1"><path d="M0 55H500V60H0z" fill="#330084" opacity=".3"/></g><g id="change3_1"><path d="M30 20H35V25H30z" fill="#FF8582"/></g><g id="change3_2"><path d="M60 20H65V25H60z" fill="#FF8582"/></g><g id="change3_3"><path d="M115 20H120V25H115z" fill="#FF8582"/></g><g id="change3_4"><path d="M175 20H180V25H175z" fill="#FF8582"/></g><g id="change3_5"><path d="M235 20H240V25H235z" fill="#FF8582"/></g><g id="change3_6"><path d="M265 20H270V25H265z" fill="#FF8582"/></g><g id="change3_7"><path d="M385 20H390V25H385z" fill="#FF8582"/></g><g id="change3_8"><path d="M445 20H450V25H445z" fill="#FF8582"/></g><g id="change3_9"><path d="M20 5H25V10H20z" fill="#FF8582"/></g><g id="change3_10"><path d="M95 5H100V10H95z" fill="#FF8582"/></g><g id="change3_11"><path d="M155 5H160V10H155z" fill="#FF8582"/></g><g id="change3_12"><path d="M185 5H190V10H185z" fill="#FF8582"/></g><g id="change3_13"><path d="M245 5H250V10H245z" fill="#FF8582"/></g><g id="change3_14"><path d="M305 5H310V10H305z" fill="#FF8582"/></g><g id="change3_15"><path d="M335 5H340V10H335z" fill="#FF8582"/></g><g id="change3_16"><path d="M425 5H430V10H425z" fill="#FF8582"/></g><g id="change3_17"><path d="M5 35H10V40H5z" fill="#FF8582"/></g><g id="change3_18"><path d="M30 50H35V55H30z" fill="#FF8582"/></g><g id="change3_19"><path d="M145 50H150V55H145z" fill="#FF8582"/></g><g id="change3_20"><path d="M210 50H215V55H210z" fill="#FF8582"/></g><g id="change3_21"><path d="M385 50H390V55H385z" fill="#FF8582"/></g><g id="change3_22"><path d="M65 35H70V40H65z" fill="#FF8582"/></g><g id="change3_23"><path d="M200 35H205V40H200z" fill="#FF8582"/></g><g id="change3_24"><path d="M275 35H280V40H275z" fill="#FF8582"/></g><g id="change3_25"><path d="M290 35H295V40H290z" fill="#FF8582"/></g><g id="change3_26"><path d="M320 35H325V40H320z" fill="#FF8582"/></g><g id="change3_27"><path d="M455 35H460V40H455z" fill="#FF8582"/></g><g id="change4_1"><path d="M490,0v10h-5h-5V0h-5v10h-5h-5V0h-5v10h-5h-5V0h-5v10h-5h-5V0h-5v10h-5h-5V0h-5v10h-5h-5V0h-5v10h-5h-5V0 h-5v10h-5h-5V0h-5v10h-5h-5V0h-5v10h-5h-5V0h-5v10h-5h-5V0h-5v10h-5h-5V0h-5v10h-5h-5V0h-5v10h-5h-5V0h-5v10h-5h-5V0h-5v10h-5h-5 V0h-5v10h-5h-5V0h-5v10h-5h-5V0h-5v10h-5h-5V0h-5v10h-5h-5V0h-5v10h-5h-5V0h-5v10h-5h-5V0h-5v10h-5h-5V0h-5v10h-5h-5V0h-5v10h-5 h-5V0h-5v10h-5h-5V0h-5v10h-5h-5V0h-5v10h-5h-5V0h-5v10h-5h-5V0h-5v10h-5h-5V0h-5v10h-5h-5V0h-5v10h-5h-5V0h-5v10H5H0h0v5h0h5v10 H0h0v5h0h5h5v10H5H0h0v5h0h5v10H0h0v5h0h5h5h5h5h5h5h5h5h5h5h5h5h5h5h5h5h5h5h5h5h5h5h5h5h5h5h5h5h5h5h5h5h5h5h5h5h5h5h5h5h5h5h5 h5h5h5h5h5h5h5h5h5h5h5h5h5h5h5h5h5h5h5h5h5h5h5h5h5h5h5h5h5h5h5h5h5h5h5h5h5h5h5h5h5h5h5h5h5h5h5h5h5h5h5h5h5h5h5h10v-5h-10V45 h10v-5h-5V30h5v-5h-10V15h10v-5h-5V0H490z M465,15h5v10h-5h-5V15H465z M475,40h-5h-5V30h5h5V40z M30,30h5h5v10h-5h-5V30z M45,30h5 h5v10h-5h-5V30z M60,30h5h5v10h-5h-5V30z M75,30h5h5v10h-5h-5V30z M90,30h5h5v10h-5h-5V30z M105,30h5h5v10h-5h-5V30z M120,30h5h5 v10h-5h-5V30z M135,30h5h5v10h-5h-5V30z M150,30h5h5v10h-5h-5V30z M165,30h5h5v10h-5h-5V30z M180,30h5h5v10h-5h-5V30z M195,30h5h5 v10h-5h-5V30z M210,30h5h5v10h-5h-5V30z M225,30h5h5v10h-5h-5V30z M240,30h5h5v10h-5h-5V30z M255,30h5h5v10h-5h-5V30z M270,30h5h5 v10h-5h-5V30z M285,30h5h5v10h-5h-5V30z M300,30h5h5v10h-5h-5V30z M315,30h5h5v10h-5h-5V30z M330,30h5h5v10h-5h-5V30z M345,30h5h5 v10h-5h-5V30z M360,30h5h5v10h-5h-5V30z M375,30h5h5v10h-5h-5V30z M390,30h5h5v10h-5h-5V30z M405,30h5h5v10h-5h-5V30z M420,30h5h5 v10h-5h-5V30z M435,30h5h5v10h-5h-5V30z M450,30h5h5v10h-5h-5V30z M450,15h5v10h-5h-5V15H450z M435,15h5v10h-5h-5V15H435z M420,15 h5v10h-5h-5V15H420z M405,15h5v10h-5h-5V15H405z M390,15h5v10h-5h-5V15H390z M375,15h5v10h-5h-5V15H375z M360,15h5v10h-5h-5V15 H360z M345,15h5v10h-5h-5V15H345z M330,15h5v10h-5h-5V15H330z M315,15h5v10h-5h-5V15H315z M300,15h5v10h-5h-5V15H300z M285,15h5 v10h-5h-5V15H285z M270,15h5v10h-5h-5V15H270z M255,15h5v10h-5h-5V15H255z M240,15h5v10h-5h-5V15H240z M225,15h5v10h-5h-5V15H225z M210,15h5v10h-5h-5V15H210z M195,15h5v10h-5h-5V15H195z M180,15h5v10h-5h-5V15H180z M165,15h5v10h-5h-5V15H165z M150,15h5v10h-5 h-5V15H150z M135,15h5v10h-5h-5V15H135z M120,15h5v10h-5h-5V15H120z M105,15h5v10h-5h-5V15H105z M90,15h5v10h-5h-5V15H90z M75,15 h5v10h-5h-5V15H75z M60,15h5v10h-5h-5V15H60z M45,15h5v10h-5h-5V15H45z M30,15h5v10h-5h-5V15H30z M10,15h5h5v10h-5h-5V15z M15,30 h5h5v10h-5h-5V30z M15,55h-5V45h5h5v10H15z M30,55h-5V45h5h5v10H30z M45,55h-5V45h5h5v10H45z M60,55h-5V45h5h5v10H60z M75,55h-5 V45h5h5v10H75z M90,55h-5V45h5h5v10H90z M105,55h-5V45h5h5v10H105z M120,55h-5V45h5h5v10H120z M135,55h-5V45h5h5v10H135z M150,55 h-5V45h5h5v10H150z M165,55h-5V45h5h5v10H165z M180,55h-5V45h5h5v10H180z M195,55h-5V45h5h5v10H195z M210,55h-5V45h5h5v10H210z M225,55h-5V45h5h5v10H225z M240,55h-5V45h5h5v10H240z M255,55h-5V45h5h5v10H255z M270,55h-5V45h5h5v10H270z M285,55h-5V45h5h5v10 H285z M300,55h-5V45h5h5v10H300z M315,55h-5V45h5h5v10H315z M330,55h-5V45h5h5v10H330z M345,55h-5V45h5h5v10H345z M360,55h-5V45h5 h5v10H360z M375,55h-5V45h5h5v10H375z M390,55h-5V45h5h5v10H390z M405,55h-5V45h5h5v10H405z M420,55h-5V45h5h5v10H420z M435,55h-5 V45h5h5v10H435z M450,55h-5V45h5h5v10H450z M465,55h-5V45h5h5v10H465z M485,55h-5h-5V45h5h5V55z M490,40h-5h-5V30h5h5V40z M485,25 h-5h-5V15h5h5V25z" fill="#8B39EA"/></g><g id="change3_28"><path d="M475 50H485V55H475z" fill="#FF8582"/></g><g id="change3_29"><path d="M445 50H455V55H445z" fill="#FF8582"/></g><g id="change3_30"><path d="M415 50H425V55H415z" fill="#FF8582"/></g><g id="change3_31"><path d="M355 50H365V55H355z" fill="#FF8582"/></g><g id="change3_32"><path d="M325 50H335V55H325z" fill="#FF8582"/></g><g id="change3_33"><path d="M295 50H305V55H295z" fill="#FF8582"/></g><g id="change3_34"><path d="M265 50H275V55H265z" fill="#FF8582"/></g><g id="change3_35"><path d="M235 50H245V55H235z" fill="#FF8582"/></g><g id="change3_36"><path d="M175 50H185V55H175z" fill="#FF8582"/></g><g id="change3_37"><path d="M115 50H125V55H115z" fill="#FF8582"/></g><g id="change3_38"><path d="M85 50H95V55H85z" fill="#FF8582"/></g><g id="change3_39"><path d="M55 50H65V55H55z" fill="#FF8582"/></g><g id="change3_40"><path d="M25 50H35V55H25z" fill="#FF8582"/></g><g id="change3_41"><path d="M0 50H5V55H0z" fill="#FF8582"/></g><g id="change5_1"><path d="M0 0H5V5H0z" fill="#F969A1" opacity=".5"/></g><g id="change5_2"><path d="M5 5H10V10H5z" fill="#F969A1" opacity=".5"/></g><g id="change5_3"><path d="M0 20H5V25H0z" fill="#F969A1" opacity=".5"/></g><g id="change5_4"><path d="M15 15H20V20H15z" fill="#F969A1" opacity=".5"/></g><g id="change5_5"><path d="M25 20H30V25H25z" fill="#F969A1" opacity=".5"/></g><g id="change5_6"><path d="M45 15H50V20H45z" fill="#F969A1" opacity=".5"/></g><g id="change5_7"><path d="M55 20H60V25H55z" fill="#F969A1" opacity=".5"/></g><g id="change5_8"><path d="M75 15H80V20H75z" fill="#F969A1" opacity=".5"/></g><g id="change5_9"><path d="M85 25L90 25 95 25 95 20 90 20 85 20z" fill="#F969A1" opacity=".5"/></g><g id="change5_10"><path d="M105 15H110V20H105z" fill="#F969A1" opacity=".5"/></g><g id="change5_11"><path d="M120 20H125V25H120z" fill="#F969A1" opacity=".5"/></g><g id="change5_12"><path d="M135 15H140V20H135z" fill="#F969A1" opacity=".5"/></g><g id="change5_13"><path d="M145 25L150 25 155 25 155 20 150 20 145 20z" fill="#F969A1" opacity=".5"/></g><g id="change5_14"><path d="M165 15H170V20H165z" fill="#F969A1" opacity=".5"/></g><g id="change5_15"><path d="M180 20H185V25H180z" fill="#F969A1" opacity=".5"/></g><g id="change5_16"><path d="M195 15H200V20H195z" fill="#F969A1" opacity=".5"/></g><g id="change5_17"><path d="M205 25L210 25 215 25 215 20 210 20 205 20z" fill="#F969A1" opacity=".5"/></g><g id="change5_18"><path d="M225 15H230V20H225z" fill="#F969A1" opacity=".5"/></g><g id="change5_19"><path d="M240 20H245V25H240z" fill="#F969A1" opacity=".5"/></g><g id="change5_20"><path d="M255 15H260V20H255z" fill="#F969A1" opacity=".5"/></g><g id="change5_21"><path d="M270 20H275V25H270z" fill="#F969A1" opacity=".5"/></g><g id="change5_22"><path d="M285 15H290V20H285z" fill="#F969A1" opacity=".5"/></g><g id="change5_23"><path d="M295 25L300 25 305 25 305 20 300 20 295 20z" fill="#F969A1" opacity=".5"/></g><g id="change5_24"><path d="M315 15H320V20H315z" fill="#F969A1" opacity=".5"/></g><g id="change5_25"><path d="M325 25L330 25 335 25 335 20 330 20 325 20z" fill="#F969A1" opacity=".5"/></g><g id="change5_26"><path d="M345 15H350V20H345z" fill="#F969A1" opacity=".5"/></g><g id="change5_27"><path d="M355 25L360 25 365 25 365 20 360 20 355 20z" fill="#F969A1" opacity=".5"/></g><g id="change5_28"><path d="M375 15H380V20H375z" fill="#F969A1" opacity=".5"/></g><g id="change5_29"><path d="M390 20H395V25H390z" fill="#F969A1" opacity=".5"/></g><g id="change5_30"><path d="M405 15H410V20H405z" fill="#F969A1" opacity=".5"/></g><g id="change5_31"><path d="M415 25L420 25 425 25 425 20 420 20 415 20z" fill="#F969A1" opacity=".5"/></g><g id="change5_32"><path d="M435 15H440V20H435z" fill="#F969A1" opacity=".5"/></g><g id="change5_33"><path d="M450 20H455V25H450z" fill="#F969A1" opacity=".5"/></g><g id="change5_34"><path d="M465 15H470V20H465z" fill="#F969A1" opacity=".5"/></g><g id="change5_35"><path d="M475 25L480 25 485 25 485 20 480 20 475 20z" fill="#F969A1" opacity=".5"/></g><g id="change5_36"><path d="M495 15H500V20H495z" fill="#F969A1" opacity=".5"/></g><g id="change5_37"><path d="M30 0H35V5H30z" fill="#F969A1" opacity=".5"/></g><g id="change5_38"><path d="M35 5H40V10H35z" fill="#F969A1" opacity=".5"/></g><g id="change5_39"><path d="M50 5H55V10H50z" fill="#F969A1" opacity=".5"/></g><g id="change5_40"><path d="M60 0H65V5H60z" fill="#F969A1" opacity=".5"/></g><g id="change5_41"><path d="M65 5H70V10H65z" fill="#F969A1" opacity=".5"/></g><g id="change5_42"><path d="M80 5H85V10H80z" fill="#F969A1" opacity=".5"/></g><g id="change5_43"><path d="M90 0H95V5H90z" fill="#F969A1" opacity=".5"/></g><g id="change5_44"><path d="M110 5H115V10H110z" fill="#F969A1" opacity=".5"/></g><g id="change5_45"><path d="M120 0H125V5H120z" fill="#F969A1" opacity=".5"/></g><g id="change5_46"><path d="M125 5H130V10H125z" fill="#F969A1" opacity=".5"/></g><g id="change5_47"><path d="M140 5H145V10H140z" fill="#F969A1" opacity=".5"/></g><g id="change5_48"><path d="M150 0H155V5H150z" fill="#F969A1" opacity=".5"/></g><g id="change5_49"><path d="M170 5H175V10H170z" fill="#F969A1" opacity=".5"/></g><g id="change5_50"><path d="M180 0H185V5H180z" fill="#F969A1" opacity=".5"/></g><g id="change5_51"><path d="M200 5H205V10H200z" fill="#F969A1" opacity=".5"/></g><g id="change5_52"><path d="M210 0H215V5H210z" fill="#F969A1" opacity=".5"/></g><g id="change5_53"><path d="M215 5H220V10H215z" fill="#F969A1" opacity=".5"/></g><g id="change5_54"><path d="M230 5H235V10H230z" fill="#F969A1" opacity=".5"/></g><g id="change5_55"><path d="M240 0H245V5H240z" fill="#F969A1" opacity=".5"/></g><g id="change5_56"><path d="M260 5H265V10H260z" fill="#F969A1" opacity=".5"/></g><g id="change5_57"><path d="M270 0H275V5H270z" fill="#F969A1" opacity=".5"/></g><g id="change5_58"><path d="M275 5H280V10H275z" fill="#F969A1" opacity=".5"/></g><g id="change5_59"><path d="M290 5H295V10H290z" fill="#F969A1" opacity=".5"/></g><g id="change5_60"><path d="M300 0H305V5H300z" fill="#F969A1" opacity=".5"/></g><g id="change5_61"><path d="M320 5H325V10H320z" fill="#F969A1" opacity=".5"/></g><g id="change5_62"><path d="M330 0H335V5H330z" fill="#F969A1" opacity=".5"/></g><g id="change5_63"><path d="M350 5H355V10H350z" fill="#F969A1" opacity=".5"/></g><g id="change5_64"><path d="M360 0H365V5H360z" fill="#F969A1" opacity=".5"/></g><g id="change5_65"><path d="M365 5H370V10H365z" fill="#F969A1" opacity=".5"/></g><g id="change5_66"><path d="M380 5H385V10H380z" fill="#F969A1" opacity=".5"/></g><g id="change5_67"><path d="M390 0H395V5H390z" fill="#F969A1" opacity=".5"/></g><g id="change5_68"><path d="M395 5H400V10H395z" fill="#F969A1" opacity=".5"/></g><g id="change5_69"><path d="M410 5H415V10H410z" fill="#F969A1" opacity=".5"/></g><g id="change5_70"><path d="M420 0H425V5H420z" fill="#F969A1" opacity=".5"/></g><g id="change5_71"><path d="M440 5H445V10H440z" fill="#F969A1" opacity=".5"/></g><g id="change5_72"><path d="M450 0H455V5H450z" fill="#F969A1" opacity=".5"/></g><g id="change5_73"><path d="M455 5H460V10H455z" fill="#F969A1" opacity=".5"/></g><g id="change5_74"><path d="M470 5H475V10H470z" fill="#F969A1" opacity=".5"/></g><g id="change5_75"><path d="M480 0H485V5H480z" fill="#F969A1" opacity=".5"/></g><g id="change5_76"><path d="M485 5H490V10H485z" fill="#F969A1" opacity=".5"/></g><g id="change5_77"><path d="M0 30H5V35H0z" fill="#F969A1" opacity=".5"/></g><g id="change5_78"><path d="M15 45H20V50H15z" fill="#F969A1" opacity=".5"/></g><g id="change5_79"><path d="M45 45H50V50H45z" fill="#F969A1" opacity=".5"/></g><g id="change5_80"><path d="M75 45H80V50H75z" fill="#F969A1" opacity=".5"/></g><g id="change5_81"><path d="M105 45H110V50H105z" fill="#F969A1" opacity=".5"/></g><g id="change5_82"><path d="M135 45H140V50H135z" fill="#F969A1" opacity=".5"/></g><g id="change5_83"><path d="M150 50H155V55H150z" fill="#F969A1" opacity=".5"/></g><g id="change5_84"><path d="M165 45H170V50H165z" fill="#F969A1" opacity=".5"/></g><g id="change5_85"><path d="M195 45H200V50H195z" fill="#F969A1" opacity=".5"/></g><g id="change5_86"><path d="M225 45H230V50H225z" fill="#F969A1" opacity=".5"/></g><g id="change5_87"><path d="M255 45H260V50H255z" fill="#F969A1" opacity=".5"/></g><g id="change5_88"><path d="M285 45H290V50H285z" fill="#F969A1" opacity=".5"/></g><g id="change5_89"><path d="M315 45H320V50H315z" fill="#F969A1" opacity=".5"/></g><g id="change5_90"><path d="M345 45H350V50H345z" fill="#F969A1" opacity=".5"/></g><g id="change5_91"><path d="M375 45H380V50H375z" fill="#F969A1" opacity=".5"/></g><g id="change5_92"><path d="M405 45H410V50H405z" fill="#F969A1" opacity=".5"/></g><g id="change5_93"><path d="M435 45H440V50H435z" fill="#F969A1" opacity=".5"/></g><g id="change5_94"><path d="M465 45H470V50H465z" fill="#F969A1" opacity=".5"/></g><g id="change5_95"><path d="M495 45H500V50H495z" fill="#F969A1" opacity=".5"/></g><g id="change5_96"><path d="M20 35H25V40H20z" fill="#F969A1" opacity=".5"/></g><g id="change5_97"><path d="M30 30H35V35H30z" fill="#F969A1" opacity=".5"/></g><g id="change5_98"><path d="M35 35H40V40H35z" fill="#F969A1" opacity=".5"/></g><g id="change5_99"><path d="M50 35H55V40H50z" fill="#F969A1" opacity=".5"/></g><g id="change5_100"><path d="M60 30H65V35H60z" fill="#F969A1" opacity=".5"/></g><g id="change5_101"><path d="M80 35H85V40H80z" fill="#F969A1" opacity=".5"/></g><g id="change5_102"><path d="M90 30H95V35H90z" fill="#F969A1" opacity=".5"/></g><g id="change5_103"><path d="M95 35H100V40H95z" fill="#F969A1" opacity=".5"/></g><g id="change5_104"><path d="M110 35H115V40H110z" fill="#F969A1" opacity=".5"/></g><g id="change5_105"><path d="M120 30H125V35H120z" fill="#F969A1" opacity=".5"/></g><g id="change5_106"><path d="M125 35H130V40H125z" fill="#F969A1" opacity=".5"/></g><g id="change5_107"><path d="M140 35H145V40H140z" fill="#F969A1" opacity=".5"/></g><g id="change5_108"><path d="M150 30H155V35H150z" fill="#F969A1" opacity=".5"/></g><g id="change5_109"><path d="M155 35H160V40H155z" fill="#F969A1" opacity=".5"/></g><g id="change5_110"><path d="M170 35H175V40H170z" fill="#F969A1" opacity=".5"/></g><g id="change5_111"><path d="M180 30H185V35H180z" fill="#F969A1" opacity=".5"/></g><g id="change5_112"><path d="M185 35H190V40H185z" fill="#F969A1" opacity=".5"/></g><g id="change5_113"><path d="M210 30H215V35H210z" fill="#F969A1" opacity=".5"/></g><g id="change5_114"><path d="M215 35H220V40H215z" fill="#F969A1" opacity=".5"/></g><g id="change5_115"><path d="M230 35H235V40H230z" fill="#F969A1" opacity=".5"/></g><g id="change5_116"><path d="M240 30H245V35H240z" fill="#F969A1" opacity=".5"/></g><g id="change5_117"><path d="M245 35H250V40H245z" fill="#F969A1" opacity=".5"/></g><g id="change5_118"><path d="M260 35H265V40H260z" fill="#F969A1" opacity=".5"/></g><g id="change5_119"><path d="M270 30H275V35H270z" fill="#F969A1" opacity=".5"/></g><g id="change5_120"><path d="M300 30H305V35H300z" fill="#F969A1" opacity=".5"/></g><g id="change5_121"><path d="M305 35H310V40H305z" fill="#F969A1" opacity=".5"/></g><g id="change5_122"><path d="M330 30H335V35H330z" fill="#F969A1" opacity=".5"/></g><g id="change5_123"><path d="M335 35H340V40H335z" fill="#F969A1" opacity=".5"/></g><g id="change5_124"><path d="M350 35H355V40H350z" fill="#F969A1" opacity=".5"/></g><g id="change5_125"><path d="M360 30H365V35H360z" fill="#F969A1" opacity=".5"/></g><g id="change5_126"><path d="M365 35H370V40H365z" fill="#F969A1" opacity=".5"/></g><g id="change5_127"><path d="M380 35H385V40H380z" fill="#F969A1" opacity=".5"/></g><g id="change5_128"><path d="M390 30H395V35H390z" fill="#F969A1" opacity=".5"/></g><g id="change5_129"><path d="M395 35H400V40H395z" fill="#F969A1" opacity=".5"/></g><g id="change5_130"><path d="M410 35H415V40H410z" fill="#F969A1" opacity=".5"/></g><g id="change5_131"><path d="M420 30H425V35H420z" fill="#F969A1" opacity=".5"/></g><g id="change5_132"><path d="M425 35H430V40H425z" fill="#F969A1" opacity=".5"/></g><g id="change5_133"><path d="M440 35H445V40H440z" fill="#F969A1" opacity=".5"/></g><g id="change5_134"><path d="M450 30H455V35H450z" fill="#F969A1" opacity=".5"/></g><g id="change5_135"><path d="M470 35H475V40H470z" fill="#F969A1" opacity=".5"/></g><g id="change5_136"><path d="M480 30H485V35H480z" fill="#F969A1" opacity=".5"/></g><g id="change3_42"><path d="M485 35H490V40H485z" fill="#FF8582"/></g><g id="change2_2"><path d="M0 65H500V75H0z" fill="#330084" opacity=".3" transform="rotate(-180 250 70)"/></g><g id="change2_3"><path d="M0 70H500V75H0z" fill="#330084" opacity=".3" transform="rotate(-180 250 72.5)"/></g><g fill="#F969A1" id="change5_137"><path d="M385 45.1L385 50.1 390 50.1 395 50.1 395 45.1 390 45.1z"/><path d="M460 45.1H470V50.1H460z"/><path d="M430 45.1H440V50.1H430z"/><path d="M400 45.1H410V50.1H400z"/><path d="M370 45.1H380V50.1H370z"/><path d="M340 45.1H350V50.1H340z"/><path d="M310 45.1H320V50.1H310z"/><path d="M280 45.1H290V50.1H280z"/><path d="M250 45.1H260V50.1H250z"/><path d="M220 45.1H230V50.1H220z"/><path d="M190 45.1H200V50.1H190z"/><path d="M160 45.1H170V50.1H160z"/><path d="M145 45.1H155V50.1H145z"/><path d="M130 45.1H140V50.1H130z"/><path d="M100 45.1H110V50.1H100z"/><path d="M70 45.1H80V50.1H70z"/><path d="M40 45.1H50V50.1H40z"/><path d="M10 45.1H20V50.1H10z"/><path d="M0 45.1H5V50.1H0z"/><path d="M25 45.1H30V50.1H25z"/><path d="M55 45.1L55 50.1 60 50.1 65 50.1 65 45.1 60 45.1z"/><path d="M85 45.1L85 50.1 90 50.1 95 50.1 95 45.1 90 45.1z"/><path d="M115 45.1L115 50.1 120 50.1 125 50.1 125 45.1 120 45.1z"/><path d="M175 45.1L175 50.1 180 50.1 185 50.1 185 45.1 180 45.1z"/><path d="M205 45.1L205 50.1 210 50.1 215 50.1 215 45.1 210 45.1z"/><path d="M235 45.1L235 50.1 240 50.1 245 50.1 245 45.1 240 45.1z"/><path d="M265 45.1L265 50.1 270 50.1 275 50.1 275 45.1 270 45.1z"/><path d="M295 45.1L295 50.1 300 50.1 305 50.1 305 45.1 300 45.1z"/><path d="M325 45.1L325 50.1 330 50.1 335 50.1 335 45.1 330 45.1z"/><path d="M355 45.1L355 50.1 360 50.1 365 50.1 365 45.1 360 45.1z"/><path d="M415 45.1L415 50.1 420 50.1 425 50.1 425 45.1 420 45.1z"/><path d="M445 45.1L445 50.1 450 50.1 455 50.1 455 45.1 450 45.1z"/><path d="M475 45.1L475 50.1 480 50.1 485 50.1 485 45.1 480 45.1z"/><path d="M490 45H500V50H490z"/></g><g id="change2_4"><path d="M0 60H5V75H0z" fill="#330084"/></g><g id="change2_5"><path d="M100 60H105V75H100z" fill="#330084"/></g><g id="change2_6"><path d="M200 60H205V75H200z" fill="#330084"/></g><g id="change2_7"><path d="M300 60H305V75H300z" fill="#330084"/></g><g id="change2_8"><path d="M400 60H405V75H400z" fill="#330084"/></g></g></svg>